<svg width="60" height="60" viewBox="0 0 60 60" fill="none" xmlns="http://www.w3.org/2000/svg">
<path d="M59.6344 25.733C59.5856 25.466 59.4458 25.2241 59.2385 25.0488C57.2979 23.4072 56.9702 21.597 56.7069 20.1425L56.6725 19.9531C56.5815 19.4566 56.1828 19.0741 55.6832 19.0038C55.5107 18.9796 55.3281 18.9672 55.1405 18.9672C54.0252 18.9672 52.4539 19.4371 51.4577 20.4867C51.2878 20.6659 51.1787 20.8942 51.1461 21.139C51.0623 21.7688 51.0192 22.3451 50.9812 22.8536C50.8377 24.7697 50.7108 24.9729 50.1271 25.1576C49.7612 25.2734 49.4753 25.5608 49.3615 25.9272C48.8118 27.6969 48.0823 29.3905 47.1994 30.9884C46.7633 30.1559 46.2814 29.407 45.833 28.7102C44.7361 27.0061 43.8696 25.6599 44.1656 23.9915C45.1249 18.584 44.638 14.5105 42.718 11.8841C41.6488 10.4215 40.1256 9.42434 38.2745 8.95852C38.6429 6.08368 40.6407 4.78032 41.7466 4.48395C42.3718 4.31649 42.7428 3.67384 42.5753 3.04864C42.4077 2.42356 41.765 2.0522 41.1401 2.22001C38.8567 2.83184 36.4177 5.07798 35.9518 8.66556C34.0815 8.66028 32.3829 9.23145 30.9851 10.3482C28.4309 12.3891 26.8876 16.1815 26.3981 21.6199C26.2508 23.2565 25.1921 24.2113 23.7267 25.5326C22.5306 26.6112 21.1982 27.8154 20.1308 29.6359C18.8013 29.0945 17.3752 28.7433 15.8859 28.6161C16.308 25.8561 18.2493 24.5959 19.3337 24.3054C19.9589 24.1379 20.3299 23.4953 20.1623 22.8702C19.9948 22.245 19.3521 21.8738 18.7271 22.0416C18.1383 22.1993 17.5393 22.4671 16.9662 22.8372C16.6996 21.5213 16.0546 20.287 15.0779 19.3105C13.7694 18.002 12.0295 17.2814 10.1789 17.2814C9.57316 17.2814 8.96988 17.3605 8.3857 17.5164C7.98059 17.6245 7.66406 17.9411 7.5559 18.3462C6.91922 20.7305 7.60664 23.2948 9.34992 25.0384C10.5629 26.2514 12.1472 26.9581 13.8464 27.055C13.6983 27.5399 13.5881 28.056 13.5241 28.6033C5.97152 29.1707 0 35.4969 0 43.1919C0 51.259 6.56309 57.8221 14.63 57.8221C17.6282 57.8221 20.484 56.931 22.9289 55.2407C23.314 55.4097 23.7003 55.5723 24.0885 55.7254C27.6153 57.1165 31.1797 57.822 34.6823 57.822C40.3162 57.822 45.5452 55.9812 49.8037 52.4985C54.2549 48.8583 57.5354 43.472 59.2904 36.9219C59.8631 34.7856 60.3683 29.7519 59.6344 25.733ZM25.2964 27.2733C26.8727 25.8518 28.5027 24.3819 28.7325 21.8302C29.1625 17.053 30.4125 13.806 32.4482 12.1795C33.6566 11.214 35.1503 10.8417 36.8882 11.074C38.6045 11.3031 39.9294 12.041 40.826 13.2675C42.3541 15.3579 42.7014 18.8283 41.8578 23.5821C41.4012 26.1557 42.6523 28.0992 43.8621 29.9789C44.5402 31.0323 45.2381 32.1185 45.7127 33.3827C41.7632 39.0863 35.7701 43.2456 29.1756 44.7687C29.2318 44.2458 29.2604 43.719 29.2604 43.1919C29.2604 37.9057 26.442 33.2654 22.2291 30.6942C23.1059 29.2512 24.2161 28.2476 25.2964 27.2733ZM11.007 23.381C10.0225 22.3964 9.54691 21.0158 9.69059 19.6508C9.85254 19.6337 10.0153 19.6249 10.1787 19.6249C11.4032 19.6249 12.5545 20.1018 13.4203 20.9675C14.4049 21.9522 14.8806 23.3329 14.7368 24.6977C14.575 24.7149 14.4121 24.7235 14.2491 24.7235H14.2488C13.024 24.7236 11.8727 24.2468 11.007 23.381ZM14.63 55.4783C7.85531 55.4783 2.34375 49.9668 2.34375 43.1919C2.34375 36.4171 7.85531 30.9055 14.63 30.9055C21.4049 30.9055 26.9166 36.4171 26.9166 43.1919C26.9166 43.8674 26.8614 44.5417 26.7523 45.2051C25.9984 45.3024 25.2394 45.3641 24.4768 45.3901C24.6374 44.6714 24.7213 43.937 24.7213 43.1919C24.7213 41.8722 24.4673 40.5838 23.9666 39.3628C23.7211 38.7642 23.0368 38.4776 22.4377 38.7233C21.8389 38.969 21.5525 39.6534 21.7982 40.2523C22.1827 41.1897 22.3775 42.1786 22.3775 43.1919C22.3775 43.9288 22.2731 44.6527 22.069 45.3536C20.3918 45.2456 18.7121 44.9685 17.0572 44.525C16.7202 44.4347 16.3602 44.4994 16.0755 44.7014C15.034 45.4409 13.9842 46.371 13.3617 48.1543C13.2013 48.614 13.3417 49.1249 13.7145 49.438C15.8672 51.2463 18.1164 52.7793 20.4332 54.0237C18.6598 54.9789 16.6852 55.4783 14.63 55.4783ZM57.0266 36.3155C53.8113 48.3147 45.4584 55.4783 34.6825 55.4783C28.3916 55.4783 21.7512 52.8992 15.8982 48.1988C16.2084 47.6419 16.592 47.2586 17.0041 46.9314C19.2047 47.4743 21.4425 47.7492 23.6647 47.7492C29.9541 47.7492 36.0184 45.606 41.2021 41.5512C43.8375 39.4897 46.1216 37.0057 47.9512 34.2513C47.973 34.2218 47.9935 34.1913 48.0124 34.1599C49.4568 31.9686 50.6136 29.6077 51.4295 27.1526C53.0719 26.3262 53.1971 24.6523 53.3187 23.0285C53.3464 22.6574 53.3749 22.2768 53.4184 21.8752C53.7301 21.6495 54.1432 21.4708 54.5573 21.3789C54.8696 22.8689 55.4769 24.7815 57.3959 26.5477C57.9388 30.0002 57.5446 34.3822 57.0266 36.3155Z" fill="#EC7451"/>
<path d="M37.7933 13.4838C37.1969 13.234 36.5098 13.5147 36.2595 14.1115C36.0092 14.7083 36.2901 15.3951 36.887 15.6454C37.7396 16.0028 38.2103 18.5752 37.4605 22.8001C37.3474 23.4374 37.7724 24.0457 38.4097 24.1588C38.479 24.1711 38.5479 24.1771 38.6159 24.1771C39.1733 24.1771 39.6676 23.7777 39.7684 23.2098C40.439 19.4317 40.6405 14.6775 37.7933 13.4838Z" fill="#EC7451"/>
<path d="M45.5399 47.0268C45.1516 46.509 44.4158 46.405 43.8981 46.7935C43.8976 46.7937 43.8926 46.7975 43.8922 46.7977C43.3703 47.1799 43.2591 47.9111 43.6407 48.4333C43.8698 48.7467 44.2263 48.9125 44.5876 48.9125C44.8283 48.9125 45.0713 48.8389 45.2801 48.6863L45.3069 48.6665C45.8246 48.2782 45.9282 47.5447 45.5399 47.0268Z" fill="#EC7451"/>
<path d="M42.8499 48.9196C42.555 48.3435 41.849 48.1153 41.2728 48.4101C37.2619 50.4618 33.8778 50.3806 33.8279 50.3783C33.1837 50.356 32.6395 50.858 32.6142 51.5037C32.5889 52.1503 33.0926 52.6951 33.7393 52.7205C33.7572 52.7212 33.8203 52.7233 33.9249 52.7233C34.7625 52.7233 38.2531 52.5872 42.3402 50.4965C42.9164 50.202 43.1446 49.4958 42.8499 48.9196Z" fill="#EC7451"/>
<path d="M21.8025 36.0906L21.7639 36.0519C21.3051 35.5957 20.5632 35.5974 20.1067 36.0563C19.6502 36.5152 19.6522 37.2573 20.1111 37.7137L20.1363 37.7389C20.3655 37.9707 20.6674 38.0866 20.9694 38.0866C21.2672 38.0866 21.5652 37.9737 21.7936 37.7478C22.2537 37.2928 22.2576 36.5506 21.8025 36.0906Z" fill="#EC7451"/>
</svg>
