<svg width="60" height="60" viewBox="0 0 60 60" fill="none" xmlns="http://www.w3.org/2000/svg">
<g clip-path="url(#clip0)">
<path d="M17.4573 26.6033C13.3378 28.6123 10.0197 32.0131 8.11427 36.1792C7.8451 36.7677 8.10396 37.463 8.69257 37.7322C8.85053 37.8045 9.01623 37.8387 9.17923 37.8387C9.62359 37.8387 10.0487 37.5846 10.2456 37.154C11.9258 33.4803 14.8518 30.4815 18.4847 28.7099C19.0664 28.4262 19.308 27.7247 19.0243 27.1429C18.7406 26.5612 18.039 26.3195 17.4573 26.6033Z" fill="#EC7451"/>
<path d="M59.998 40.6433C59.998 37.8465 58.9735 35.1562 57.1131 33.068L55.7969 31.5904C55.5023 31.2596 55.1971 30.9322 54.889 30.6089C54.8247 29.482 54.6401 28.3592 54.3303 27.2631L53.3642 23.8446C53.1812 23.197 53.1726 22.5101 53.3395 21.8582L53.7079 20.4181C54.0451 19.1003 53.7122 17.7265 52.885 16.7124L54.9072 13.2099C55.0325 12.993 55.2674 12.8637 55.4925 12.8866C57.2038 13.0652 58.8558 12.1405 59.6016 10.5851C60.4842 8.74441 59.8574 6.51757 58.1436 5.40515C57.339 4.88298 56.4066 4.66666 55.4898 4.76498C55.1168 3.92196 54.4631 3.22249 53.6086 2.78692C51.7882 1.85894 49.5464 2.42939 48.3937 4.11414C47.4195 5.53768 47.4441 7.4302 48.4548 8.82351C48.5876 9.00655 48.5928 9.27514 48.4675 9.49204L46.4454 12.9945C45.1535 12.7853 43.7974 13.1838 42.8246 14.1346L41.7618 15.1737C41.2805 15.6441 40.6813 15.9801 40.0291 16.1454L36.5854 17.018C35.0945 17.3958 33.6753 17.9947 32.371 18.7793C30.3085 18.4511 28.2081 18.2826 26.1196 18.2826C19.1428 18.2826 12.5834 20.9996 7.6501 25.9329C2.71678 30.8662 0 37.426 0 44.4029C0 46.4533 0.814543 48.3159 2.1352 49.6881H1.17184C0.69818 49.6881 0.271046 49.9734 0.0895283 50.4108C-0.0919891 50.8484 0.00761694 51.3521 0.342176 51.6875L5.95234 57.3123C6.17218 57.5328 6.47064 57.6566 6.782 57.6566H53.2209C53.5324 57.6566 53.8311 57.5325 54.0509 57.312L59.6562 51.6872C59.9905 51.3518 60.09 50.848 59.9084 50.4106C59.7267 49.9732 59.2997 49.6881 58.8262 49.6881H55.5211C58.2407 47.605 59.998 44.3257 59.998 40.6433ZM50.352 7.44731C49.9214 6.85366 49.9117 6.04603 50.3279 5.43773C50.8094 4.73404 51.783 4.4869 52.5441 4.87489C53.0899 5.1532 53.4439 5.68358 53.4911 6.29375C53.5209 6.67917 53.7389 7.02498 54.0737 7.21821C54.4083 7.41133 54.8167 7.42727 55.1655 7.26028C55.7173 6.99615 56.3536 7.03752 56.8677 7.37102C57.5844 7.83612 57.8569 8.80289 57.4883 9.57173C57.1695 10.2364 56.4654 10.6319 55.7359 10.5556C54.5879 10.4355 53.4665 11.0177 52.8775 12.038L50.9917 15.304L48.6115 13.9298L50.4971 10.6636C51.0864 9.64368 51.0295 8.38103 50.352 7.44731ZM37.1614 19.2901L40.6051 18.4175C41.6574 18.1507 42.6239 17.6087 43.4002 16.8498L44.4631 15.8106C44.819 15.4627 45.2908 15.2816 45.7668 15.2816C46.0855 15.2816 46.4062 15.3628 46.6949 15.5296L46.8423 15.6147L50.5655 17.7643C51.2848 18.1799 51.6434 19.0322 51.4375 19.8372L51.0691 21.2773C50.8 22.329 50.8137 23.4372 51.109 24.4821L52.0751 27.9005C53.0491 31.3474 52.5806 35.1031 50.7897 38.2051C49.1003 41.1312 46.3726 43.2243 43.1089 44.0988C39.8454 44.9731 36.4364 44.5244 33.5103 42.8351C27.4698 39.3476 25.3927 31.596 28.8803 25.5556C30.6712 22.4535 33.6895 20.1699 37.1614 19.2901ZM35.2724 49.6881C34.6252 49.6881 34.1005 50.2128 34.1005 50.86C34.1005 51.5072 34.6252 52.0318 35.2724 52.0318H56.0042L52.7344 55.313H7.26831L3.99573 52.0318H24.7257C25.3729 52.0318 25.8976 51.5072 25.8976 50.86C25.8976 50.2128 25.3729 49.6881 24.7257 49.6881H7.62889C4.71465 49.6881 2.34367 47.3172 2.34367 44.4028C2.34367 31.2925 13.0097 20.6266 26.12 20.6266C27.3121 20.6266 28.5084 20.6862 29.6985 20.8005C28.5859 21.8438 27.6212 23.0489 26.8505 24.3837C24.8481 27.852 24.3162 31.8925 25.3527 35.7607C26.3892 39.6291 28.8702 42.8623 32.3383 44.8646C34.6937 46.2244 37.2674 46.8703 39.8097 46.8703C44.9951 46.8703 50.0456 44.181 52.8195 39.3767C53.7963 37.6848 54.4379 35.8272 54.7312 33.9174L55.3632 34.6269C56.8406 36.2854 57.6543 38.4221 57.6543 40.6433C57.6543 45.6307 53.5969 49.6881 48.6095 49.6881H35.2724Z" fill="#EC7451"/>
<path d="M30 49.6875C29.6918 49.6875 29.3895 49.8129 29.1715 50.0309C28.9535 50.2488 28.8281 50.5512 28.8281 50.8594C28.8281 51.1676 28.9535 51.4699 29.1715 51.6879C29.3895 51.9059 29.6918 52.0312 30 52.0312C30.3082 52.0312 30.6105 51.9059 30.8285 51.6879C31.0465 51.4699 31.1719 51.1676 31.1719 50.8594C31.1719 50.5512 31.0465 50.2488 30.8285 50.0309C30.6105 49.8128 30.3082 49.6875 30 49.6875Z" fill="#EC7451"/>
</g>
<defs>
<clipPath id="clip0">
<rect width="60" height="60" fill="white"/>
</clipPath>
</defs>
</svg>
