<svg width="60" height="60" viewBox="0 0 60 60" fill="none" xmlns="http://www.w3.org/2000/svg">
<g clip-path="url(#clip0)">
<path d="M54.769 27.1376L47 23.5506V15.8096C47.0022 14.8043 46.7501 13.8148 46.2672 12.9331C45.7843 12.0514 45.0863 11.3061 44.238 10.7666C43.892 10.5446 24.505 0.554623 24.505 0.554623C23.7177 0.189379 22.8601 0.000749688 21.9922 0.0019589C21.1244 0.00316812 20.2673 0.194187 19.481 0.561623L5.234 7.14062C3.67241 7.86008 2.34958 9.01179 1.42202 10.4595C0.494457 11.9072 0.000990012 13.5903 0 15.3096L0 26.1886C0.00110013 26.9977 0.248028 27.7874 0.708061 28.453C1.16809 29.1185 1.81952 29.6286 2.576 29.9156L13.03 35.3266C13.017 35.4866 13 35.6466 13 35.8096V46.7696C13.0013 47.5328 13.2204 48.2798 13.6316 48.9228C14.0427 49.5658 14.6288 50.0782 15.321 50.3996L21 53.0186V54.9996C21 55.7953 21.3161 56.5583 21.8787 57.1209C22.4413 57.6836 23.2044 57.9996 24 57.9996C24.6652 58.0014 25.3112 57.7775 25.8326 57.3644C26.3539 56.9513 26.7197 56.3736 26.87 55.7256L35.316 59.6256C35.9215 59.9077 36.5883 60.0327 37.2549 59.9892C37.9214 59.9457 38.5663 59.735 39.13 59.3766L57.449 49.8996C58.1988 49.6095 58.8436 49.0998 59.2987 48.4371C59.7539 47.7743 59.9984 46.9896 60 46.1856V35.3056C59.9991 33.5868 59.506 31.9041 58.579 30.4567C57.652 29.0092 56.3299 27.8574 54.769 27.1376ZM45 15.8096V22.6266L43 21.6996V15.8096C43.0061 15.4807 42.9274 15.1558 42.7713 14.8663C42.6152 14.5767 42.3871 14.3323 42.109 14.1566C41.826 13.9633 41.4975 13.8471 41.1558 13.8195C40.8142 13.792 40.4713 13.8541 40.161 13.9996L25.914 20.5796C25.0457 20.9792 24.3099 21.6189 23.7936 22.4232C23.2772 23.2275 23.0018 24.1628 23 25.1186V27.0186L21 28.0546V25.1186C21.0011 23.782 21.3849 22.4737 22.1059 21.3482C22.827 20.2228 23.8552 19.3273 25.069 18.7676L39.319 12.1876C39.9279 11.9056 40.598 11.7813 41.2675 11.8262C41.9371 11.8711 42.5846 12.0837 43.1504 12.4444C43.7162 12.8052 44.1822 13.3025 44.5054 13.8906C44.8286 14.4786 44.9987 15.1386 45 15.8096ZM41 20.7796L40.516 20.5566C39.7232 20.1894 38.8596 19.9999 37.9859 20.0017C37.1121 20.0034 36.2494 20.1962 35.458 20.5666L25 25.9836V25.1186C25.0015 24.5457 25.167 23.9852 25.4769 23.5034C25.7868 23.0215 26.2283 22.6385 26.749 22.3996L41 15.8096V20.7796ZM13.542 33.3396C2.6 27.6766 3.439 28.0996 3.316 28.0566C2.92903 27.9217 2.59403 27.669 2.358 27.334C2.12198 26.999 1.99679 26.5984 2 26.1886V15.3096C2.00092 13.9728 2.3846 12.6643 3.10567 11.5386C3.82673 10.413 4.85504 9.51736 6.069 8.95762L20.315 2.37862C20.8319 2.13826 21.3941 2.01115 21.9641 2.0058C22.5341 2.00046 23.0987 2.117 23.62 2.34762L38.847 10.2306C38.725 10.2776 38.601 10.3166 38.481 10.3716L24.234 16.9496C22.6724 17.6691 21.3496 18.8208 20.422 20.2685C19.4945 21.7162 19.001 23.3993 19 25.1186V29.0916C18.474 29.3676 17.069 30.0816 16.787 30.2516C15.34 30.8121 14.1735 31.9222 13.542 33.3396ZM19 41.5386L20.407 42.1636C20.5836 42.2423 20.7337 42.3706 20.8389 42.5328C20.9442 42.695 21.0001 42.8843 21 43.0776V46.4076L19 45.4886V41.5386ZM25 54.8766C25.0093 55.1273 24.9327 55.3736 24.7829 55.5748C24.633 55.776 24.4189 55.9199 24.176 55.9826C24.0322 56.0083 23.8845 56.0022 23.7432 55.9647C23.602 55.9272 23.4708 55.8592 23.3587 55.7655C23.2466 55.6718 23.1564 55.5547 23.0944 55.4223C23.0324 55.29 23.0002 55.1457 23 54.9996V43.0776C23.0001 42.4976 22.8319 41.9299 22.516 41.4435C22.2001 40.957 21.7499 40.5725 21.22 40.3366L19 39.3486V35.8166L33.26 42.3966C33.779 42.6377 34.2184 43.0219 34.5266 43.5041C34.8348 43.9863 34.999 44.5464 35 45.1186V46.4606L29.217 43.8936C28.7603 43.6909 28.2601 43.6055 27.762 43.6451C27.2639 43.6848 26.7836 43.8482 26.3646 44.1206C25.9457 44.393 25.6015 44.7657 25.3632 45.2049C25.1248 45.6442 25 46.1359 25 46.6356V54.8766ZM35 48.6486V52.8706L27 49.1786V46.6356C27.0001 46.4692 27.0417 46.3053 27.1211 46.159C27.2005 46.0127 27.3151 45.8885 27.4547 45.7977C27.5942 45.7069 27.7543 45.6524 27.9202 45.6391C28.0861 45.6259 28.2528 45.6542 28.405 45.7216L35 48.6486ZM36.159 57.8106L27 53.5786V51.3786L34.167 54.6856C34.428 54.8068 34.7123 54.8695 35 54.8696C35.53 54.8683 36.038 54.6572 36.4128 54.2824C36.7875 53.9076 36.9987 53.3997 37 52.8696V45.1196C36.9985 44.1657 36.7248 43.232 36.2111 42.4281C35.6974 41.6243 34.9651 40.9837 34.1 40.5816L19.87 34.0156C19.6003 33.8793 19.3022 33.8088 19 33.8096C18.4696 33.8096 17.9609 34.0203 17.5858 34.3954C17.2107 34.7705 17 35.2792 17 35.8096V45.4886C17 45.8699 17.1094 46.2432 17.3152 46.5642C17.521 46.8852 17.8145 47.1404 18.161 47.2996L21 48.6086V50.8156L16.16 48.5806C15.8142 48.4206 15.5214 48.1652 15.3159 47.8443C15.1104 47.5235 15.0008 47.1506 15 46.7696V35.8096C15.0013 35.1386 15.1714 34.4786 15.4946 33.8906C15.8178 33.3025 16.2838 32.8052 16.8496 32.4444C17.4154 32.0837 18.0629 31.8711 18.7325 31.8262C19.402 31.7813 20.0721 31.9056 20.681 32.1876L34.934 38.7686C36.1471 39.3287 37.1746 40.2242 37.8951 41.3494C38.6156 42.4746 38.999 43.7825 39 45.1186V55.9996C39.0026 56.3288 38.9222 56.6534 38.7664 56.9433C38.6105 57.2332 38.384 57.4793 38.108 57.6586L37.84 57.7966C37.5786 57.9243 37.292 57.9918 37.0011 57.9942C36.7102 57.9966 36.4225 57.9339 36.159 57.8106ZM58 46.1856C58.0028 46.5955 57.8774 46.996 57.6412 47.3309C57.405 47.6659 57.07 47.9186 56.683 48.0536C56.563 48.0966 41.097 56.1106 40.99 56.1666C40.99 56.1106 41 56.0556 41 55.9986V45.1186C40.9991 43.3998 40.506 41.7171 39.579 40.2697C38.652 38.8222 37.3299 37.6704 35.769 36.9506L21.519 30.3706C21.398 30.3156 21.274 30.2756 21.152 30.2286L36.326 22.3696L36.341 22.3626C36.8654 22.1228 37.4356 21.9995 38.0122 22.0014C38.5888 22.0033 39.1582 22.1303 39.681 22.3736L53.934 28.9546C55.1472 29.5147 56.1748 30.4104 56.8953 31.5358C57.6158 32.6612 57.9992 33.9693 58 35.3056V46.1856Z" fill="#EC7451"/>
<path d="M53.5818 32.4391L42.5818 37.5341C42.3429 37.6466 42.1582 37.849 42.068 38.0972C41.9778 38.3454 41.9894 38.6192 42.1003 38.8588C42.2112 39.0985 42.4124 39.2845 42.66 39.3764C42.9076 39.4682 43.1814 39.4584 43.4218 39.3491L54.4218 34.2491C54.545 34.1966 54.6564 34.1199 54.7494 34.0235C54.8424 33.9271 54.9151 33.8131 54.9632 33.6881C55.0112 33.5631 55.0337 33.4297 55.0293 33.2959C55.0248 33.162 54.9935 33.0304 54.9372 32.9089C54.881 32.7874 54.8009 32.6784 54.7017 32.5884C54.6025 32.4985 54.4862 32.4293 54.3598 32.3851C54.2334 32.3409 54.0994 32.3226 53.9657 32.3312C53.8321 32.3397 53.7015 32.3751 53.5818 32.4351V32.4391Z" fill="#EC7451"/>
<path d="M16.9984 21.1016C17.2261 21.1015 17.447 21.0238 17.6245 20.8811C17.8021 20.7385 17.9256 20.5395 17.9747 20.3171C18.0238 20.0948 17.9955 19.8623 17.8945 19.6581C17.7936 19.454 17.6259 19.2905 17.4194 19.1946L6.41936 14.0996C6.18028 13.9977 5.91094 13.9929 5.66838 14.0862C5.42583 14.1795 5.22911 14.3635 5.11991 14.5993C5.01071 14.8352 4.9976 15.1042 5.08337 15.3495C5.16913 15.5949 5.34702 15.7972 5.57936 15.9136L16.5784 21.0016C16.7093 21.0653 16.8527 21.0994 16.9984 21.1016Z" fill="#EC7451"/>
</g>
<defs>
<clipPath id="clip0">
<rect width="60" height="60" fill="white"/>
</clipPath>
</defs>
</svg>
