<svg width="16" height="16" viewBox="0 0 16 16" fill="none" xmlns="http://www.w3.org/2000/svg">
<path d="M15.1957 1.86431C15.4886 1.57142 15.4886 1.09655 15.1957 0.803654C14.9028 0.510761 14.4279 0.510761 14.135 0.803654L15.1957 1.86431ZM0.801701 14.137C0.508808 14.4299 0.508808 14.9048 0.801701 15.1976C1.09459 15.4905 1.56947 15.4905 1.86236 15.1976L0.801701 14.137ZM1.86236 0.803654C1.56947 0.510761 1.09459 0.510761 0.801701 0.803654C0.508808 1.09655 0.508808 1.57142 0.801701 1.86431L1.86236 0.803654ZM14.135 15.1976C14.4279 15.4905 14.9028 15.4905 15.1957 15.1976C15.4886 14.9048 15.4886 14.4299 15.1957 14.137L14.135 15.1976ZM14.135 0.803654L0.801701 14.137L1.86236 15.1976L15.1957 1.86431L14.135 0.803654ZM0.801701 1.86431L14.135 15.1976L15.1957 14.137L1.86236 0.803654L0.801701 1.86431Z" fill="#505771"/>
</svg>
