<svg width="16" height="16" viewBox="0 0 16 16" fill="none" xmlns="http://www.w3.org/2000/svg">
<path d="M15.1957 1.86334C15.4886 1.57044 15.4886 1.09557 15.1957 0.802678C14.9028 0.509785 14.4279 0.509784 14.135 0.802678L15.1957 1.86334ZM0.801701 14.136C0.508808 14.4289 0.508808 14.9038 0.801701 15.1967C1.09459 15.4896 1.56947 15.4896 1.86236 15.1967L0.801701 14.136ZM1.86236 0.802678C1.56947 0.509784 1.09459 0.509785 0.801701 0.802678C0.508808 1.09557 0.508808 1.57044 0.801701 1.86334L1.86236 0.802678ZM14.135 15.1967C14.4279 15.4896 14.9028 15.4896 15.1957 15.1967C15.4886 14.9038 15.4886 14.4289 15.1957 14.136L14.135 15.1967ZM14.135 0.802678L0.801701 14.136L1.86236 15.1967L15.1957 1.86334L14.135 0.802678ZM0.801701 1.86334L14.135 15.1967L15.1957 14.136L1.86236 0.802678L0.801701 1.86334Z" fill="#505771"/>
</svg>
