<svg width="60" height="60" viewBox="0 0 60 60" fill="none" xmlns="http://www.w3.org/2000/svg">
<g clip-path="url(#clip0)">
<path d="M54.2125 25.8305C54.2119 25.6253 54.1547 25.417 54.0507 25.2402L52.2239 22.1366C52.5579 21.9302 52.7811 21.5617 52.7811 21.1403C52.7811 20.4932 52.2565 19.9684 51.6093 19.9684H46.4398L47.6413 19.0721C48.16 18.6851 48.2668 17.9508 47.8798 17.4322C47.4928 16.9135 46.7585 16.8065 46.2397 17.1937L42.5204 19.9686H34.2277C33.5804 19.9686 33.0558 20.4933 33.0558 21.1404C33.0558 21.5562 33.273 21.9207 33.5995 22.1287L31.7679 25.2405C31.6632 25.4181 31.6059 25.6286 31.6059 25.8348V37.1719C31.6059 37.1742 31.6055 37.1765 31.6055 37.1788L31.6059 55.0558C31.6059 55.9977 31.9707 56.8853 32.6333 57.5549L33.7254 58.6587C34.5684 59.5107 35.7395 59.9994 36.9381 59.9994H48.8807C50.0793 59.9994 51.2502 59.5107 52.0934 58.6587L53.1853 57.5549C53.8478 56.8853 54.2127 55.9977 54.2127 55.0558V25.8346C54.2127 25.8332 54.2125 25.8319 54.2125 25.8305ZM33.9497 37.3924C34.0645 37.1467 34.4102 36.5583 35.2736 36.0023C36.3698 35.2962 38.5084 34.5282 42.4733 34.8784C46.2273 35.2099 49.3294 34.0996 51.4423 31.6658C51.5921 31.4932 51.7341 31.3175 51.8682 31.1399V48.3987C50.6228 48.8814 49.119 48.9574 47.3871 48.6233C41.3641 47.4635 37.4445 49.0977 35.2168 50.6726C34.7408 51.0093 34.3196 51.3576 33.9496 51.7013V37.3924H33.9497ZM49.6725 30.1294C48.0499 31.9983 45.6967 32.8104 42.6797 32.5439C38.2423 32.1516 35.5579 33.0178 33.9497 34.0769V27.0066H51.398C51.076 27.9723 50.5447 29.1248 49.6725 30.1294ZM42.9082 22.3122C42.9089 22.3122 42.9095 22.3123 42.9102 22.3123C42.9111 22.3123 42.9122 22.3122 42.9131 22.3122H49.6076L50.9912 24.6628H34.8274L36.2111 22.3122H42.9082ZM51.5191 55.9063L50.4272 57.0101C50.0212 57.4202 49.4576 57.6556 48.8805 57.6556H36.938C36.3609 57.6556 35.7973 57.4202 35.3914 57.0101L34.2994 55.9063C34.1348 55.7399 34.0249 55.5339 33.9771 55.31C34.2902 54.7925 35.132 53.5766 36.6694 52.517C39.3562 50.6651 42.8133 50.1294 46.9437 50.9247C48.7594 51.2747 50.4078 51.2508 51.8688 50.8589V55.0555C51.8689 55.3763 51.7446 55.6784 51.5191 55.9063Z" fill="#EC7451"/>
<path d="M40.7667 45.4104C42.5938 45.4104 44.0803 43.9239 44.0803 42.0968C44.0803 40.2697 42.5938 38.7832 40.7667 38.7832C38.9395 38.7832 37.4531 40.2697 37.4531 42.0968C37.4531 43.9239 38.9395 45.4104 40.7667 45.4104ZM40.7667 41.1268C41.3014 41.1268 41.7366 41.562 41.7366 42.0967C41.7366 42.6314 41.3016 43.0665 40.7667 43.0665C40.2319 43.0665 39.7969 42.6314 39.7969 42.0967C39.7969 41.562 40.2319 41.1268 40.7667 41.1268Z" fill="#EC7451"/>
<path d="M46.5758 39.7709C46.9774 40.7514 48.4278 40.6964 48.7665 39.6996C49.1098 38.689 47.9711 37.7709 47.0555 38.3177C46.5639 38.6112 46.3556 39.243 46.5758 39.7709Z" fill="#EC7451"/>
<path d="M26.4582 12.9097H24.1696C23.5224 12.9097 22.9977 13.4344 22.9977 14.0815C22.9977 14.7286 23.5224 15.2534 24.1696 15.2534H25.2863V21.3452H14.3433L12.104 15.8951C12.0178 15.6845 11.9463 15.4701 11.8882 15.2533H13.8605C14.5078 15.2533 15.0324 14.7285 15.0324 14.0814C15.0324 13.4343 14.5078 12.9095 13.8605 12.9095H11.7944C11.9193 12.2242 12.1763 11.5604 12.5661 10.9596L18.502 1.80981C18.8542 1.26688 18.6997 0.541136 18.1566 0.188871C17.6139 -0.163277 16.8881 -0.00882417 16.5357 0.534222L10.5998 9.6842C9.9596 10.6708 9.56433 11.7753 9.42183 12.9097H6.95703C6.3098 12.9097 5.78516 13.4344 5.78516 14.0815V22.517V50.4151V56.7736C5.78516 58.5527 7.23265 60.0001 9.01167 60.0001H24.4034C26.1825 60.0001 27.63 58.5526 27.63 56.7736V14.0815C27.63 13.4344 27.1054 12.9097 26.4582 12.9097ZM25.2862 23.689V50.4152C25.2862 51.736 24.2117 52.8104 22.8909 52.8104H10.5242C9.20339 52.8104 8.1289 51.7359 8.1289 50.4152V23.689H12.7724L20.8319 43.3038C21.018 43.7566 21.4552 44.0306 21.9162 44.0306C22.0646 44.0306 22.2154 44.0023 22.3612 43.9424C22.9598 43.6963 23.2457 43.0117 22.9997 42.413L15.3063 23.689H25.2862ZM9.48757 15.2534C9.58261 15.7729 9.73144 16.2863 9.9357 16.7848L11.8095 21.3452H8.1289V15.2534H9.48757ZM24.4034 57.6565H9.01167C8.52488 57.6565 8.1289 57.2605 8.1289 56.7737V54.5019C8.83226 54.9158 9.6507 55.1543 10.5242 55.1543H22.891C23.7645 55.1543 24.5829 54.9158 25.2863 54.5019V56.7738C25.2863 57.2605 24.8902 57.6565 24.4034 57.6565Z" fill="#EC7451"/>
<path d="M14.0122 37.1061C13.8199 36.6448 13.3427 36.3487 12.8438 36.386C12.3348 36.4241 11.9003 36.8001 11.7873 37.2976C11.5548 38.3217 12.7466 39.1117 13.6047 38.5123C14.0502 38.2011 14.2174 37.607 14.0122 37.1061Z" fill="#EC7451"/>
<path d="M17.7893 45.9127C17.5973 45.4515 17.1202 45.1554 16.6213 45.1926C16.1126 45.2304 15.6769 45.6063 15.5644 46.1038C15.3331 47.1276 16.5231 47.919 17.3818 47.3188C17.8251 47.009 17.9975 46.412 17.7893 45.9127Z" fill="#EC7451"/>
<path d="M18.3842 13.1089C17.8488 13.4595 17.7087 14.2045 18.0608 14.7331C18.4146 15.2644 19.1536 15.4099 19.685 15.0577C20.218 14.7045 20.3601 13.9621 20.0084 13.4323C19.6589 12.9056 18.9096 12.7489 18.3842 13.1089Z" fill="#EC7451"/>
</g>
<defs>
<clipPath id="clip0">
<rect width="60" height="60" fill="white"/>
</clipPath>
</defs>
</svg>
