<svg width="16" height="14" viewBox="0 0 16 14" fill="none" xmlns="http://www.w3.org/2000/svg">
<path d="M8.41879 1.99804L8.0007 2.33251L7.58262 1.99804C5.92296 0.670315 3.53038 0.802827 2.0275 2.30571C0.502044 3.83117 0.389984 6.26975 1.84888 7.85898C3.95708 10.1555 6.8083 12.9992 8.0007 12.9992C9.19311 12.9992 12.0443 10.1555 14.1525 7.85898C15.6114 6.26975 15.4994 3.83116 13.9739 2.30571C12.471 0.802827 10.0784 0.670315 8.41879 1.99804Z" fill="#EC7451"/>
<path d="M8.0007 2.33251L7.53218 2.91816L8.0007 3.29298L8.46922 2.91816L8.0007 2.33251ZM8.41879 1.99804L8.88731 2.58369V2.58369L8.41879 1.99804ZM14.1525 7.85898L14.705 8.36617L14.705 8.36617L14.1525 7.85898ZM1.84888 7.85898L1.29638 8.36617H1.29638L1.84888 7.85898ZM7.58262 1.99804L8.05114 1.41239V1.41239L7.58262 1.99804ZM13.9739 2.30571L14.5042 1.77538L14.5042 1.77538L13.9739 2.30571ZM8.46922 2.91816L8.88731 2.58369L7.95027 1.41239L7.53218 1.74686L8.46922 2.91816ZM13.6 7.35179C12.5519 8.49353 11.3323 9.75655 10.2356 10.7291C9.68584 11.2166 9.18385 11.616 8.76135 11.8891C8.55033 12.0255 8.37325 12.1212 8.23098 12.1808C8.16075 12.2103 8.10539 12.2282 8.06388 12.2384C8.0435 12.2434 8.02801 12.2462 8.01707 12.2477C8.01167 12.2484 8.00762 12.2488 8.00484 12.249C8.00347 12.2491 8.00244 12.2491 8.00174 12.2491C8.0014 12.2492 8.00114 12.2492 8.00096 12.2492C8.00031 12.2492 8.00139 12.2492 8.00077 12.2492C8.00015 12.2492 8.00129 12.2492 8.0007 12.2492V13.7492C8.53636 13.7492 9.10048 13.456 9.57566 13.1488C10.089 12.817 10.6552 12.3619 11.2308 11.8514C12.3848 10.828 13.6449 9.52096 14.705 8.36617L13.6 7.35179ZM8.0007 12.2492C8.00012 12.2492 8.00125 12.2492 8.00064 12.2492C8.00002 12.2492 8.00109 12.2492 8.00044 12.2492C8.00027 12.2492 8.00001 12.2492 7.99966 12.2491C7.99897 12.2491 7.99794 12.2491 7.99656 12.249C7.99379 12.2488 7.98974 12.2484 7.98433 12.2477C7.97339 12.2462 7.9579 12.2434 7.93752 12.2384C7.89602 12.2282 7.84066 12.2103 7.77043 12.1808C7.62816 12.1212 7.45108 12.0255 7.24006 11.8891C6.81756 11.616 6.31556 11.2166 5.76583 10.7291C4.66909 9.75655 3.4495 8.49353 2.40138 7.35179L1.29638 8.36617C2.35647 9.52095 3.61658 10.828 4.7706 11.8514C5.34624 12.3619 5.9124 12.817 6.42574 13.1488C6.90092 13.456 7.46504 13.7492 8.0007 13.7492V12.2492ZM7.1141 2.58369L7.53218 2.91816L8.46922 1.74686L8.05114 1.41239L7.1141 2.58369ZM2.55783 2.83604C3.79048 1.60339 5.75286 1.4947 7.1141 2.58369L8.05114 1.41239C6.09307 -0.154071 3.27028 0.0022676 1.49717 1.77538L2.55783 2.83604ZM2.40138 7.35179C1.2281 6.07369 1.30166 4.09221 2.55783 2.83604L1.49717 1.77538C-0.297574 3.57012 -0.448134 6.46581 1.29638 8.36617L2.40138 7.35179ZM13.4436 2.83604C14.6997 4.09221 14.7733 6.07369 13.6 7.35179L14.705 8.36617C16.4495 6.46581 16.299 3.57012 14.5042 1.77538L13.4436 2.83604ZM8.88731 2.58369C10.2485 1.4947 12.2109 1.60339 13.4436 2.83604L14.5042 1.77538C12.7311 0.00226748 9.90834 -0.154071 7.95027 1.41239L8.88731 2.58369Z" fill="#EC7451"/>
</svg>
