<svg width="16" height="16" viewBox="0 0 16 16" fill="none" xmlns="http://www.w3.org/2000/svg">
<path d="M1.82331 3.5209L1.24714 4.00104H1.24714L1.82331 3.5209ZM6.35851 8.96314L5.78234 9.44328L6.35851 8.96314ZM7.20088 13.734L7.65088 13.134L7.20088 13.734ZM8.26754 14.534L8.71754 13.934L8.71754 13.934L8.26754 14.534ZM9.64325 8.96314L10.2194 9.44328L9.64325 8.96314ZM14.1785 3.5209L14.7546 4.00103L14.1785 3.5209ZM1.24714 4.00104L5.78234 9.44328L6.93467 8.483L2.39947 3.04076L1.24714 4.00104ZM5.91754 9.81672V12.6673H7.41754V9.81672H5.91754ZM6.75088 14.334L7.81754 15.134L8.71754 13.934L7.65088 13.134L6.75088 14.334ZM10.0842 14.0007V9.81672H8.58421V14.0007H10.0842ZM10.2194 9.44328L14.7546 4.00103L13.6023 3.04076L9.06708 8.483L10.2194 9.44328ZM13.1542 0.583984H2.8476V2.08398H13.1542V0.583984ZM14.7546 4.00103C15.8854 2.6441 14.9205 0.583984 13.1542 0.583984V2.08398C13.6487 2.08398 13.9189 2.66082 13.6023 3.04076L14.7546 4.00103ZM10.0842 9.81672C10.0842 9.68025 10.1321 9.54811 10.2194 9.44328L9.06708 8.483C8.75508 8.85741 8.58421 9.32935 8.58421 9.81672H10.0842ZM7.81754 15.134C8.75146 15.8344 10.0842 15.168 10.0842 14.0007H8.58421C8.58421 13.9912 8.58801 13.9727 8.59963 13.9547C8.6096 13.9393 8.62102 13.9307 8.63028 13.9261C8.63953 13.9215 8.65324 13.9175 8.67155 13.9188C8.69289 13.9202 8.70998 13.9283 8.71754 13.934L7.81754 15.134ZM5.91754 12.6673C5.91754 13.3231 6.22628 13.9405 6.75088 14.334L7.65088 13.134C7.50399 13.0238 7.41754 12.8509 7.41754 12.6673H5.91754ZM5.78234 9.44328C5.8697 9.54811 5.91754 9.68025 5.91754 9.81672H7.41754C7.41754 9.32935 7.24668 8.85741 6.93467 8.483L5.78234 9.44328ZM2.39947 3.04076C2.08285 2.66082 2.35303 2.08398 2.8476 2.08398V0.583984C1.08127 0.583984 0.116363 2.6441 1.24714 4.00104L2.39947 3.04076Z" fill="#505771"/>
</svg>
