<svg width="24" height="19" viewBox="0 0 24 19" fill="none" xmlns="http://www.w3.org/2000/svg">
<path d="M8.41721 5.34994C8.003 5.34994 7.66721 5.68572 7.66721 6.09994C7.66721 6.51415 8.003 6.84994 8.41721 6.84994V5.34994ZM11.3298 6.84994C11.744 6.84994 12.0798 6.51415 12.0798 6.09994C12.0798 5.68572 11.744 5.34994 11.3298 5.34994V6.84994ZM8.41721 9.2166C8.003 9.2166 7.66721 9.55239 7.66721 9.9666C7.66721 10.3808 8.003 10.7166 8.41721 10.7166V9.2166ZM16.1842 10.7166C16.5984 10.7166 16.9342 10.3808 16.9342 9.9666C16.9342 9.55239 16.5984 9.2166 16.1842 9.2166V10.7166ZM3.27848 17.0164L2.7493 16.4849L3.27848 17.0164ZM5.50459 14.7999V14.0499C5.30624 14.0499 5.11597 14.1285 4.97541 14.2685L5.50459 14.7999ZM8.41721 6.84994H11.3298V5.34994H8.41721V6.84994ZM8.41721 10.7166H16.1842V9.2166H8.41721V10.7166ZM0.871094 3.19994V16.3329H2.37109V3.19994H0.871094ZM3.80766 17.5479L6.03377 15.3314L4.97541 14.2685L2.7493 16.4849L3.80766 17.5479ZM5.50459 15.5499H21.0386V14.0499H5.50459V15.5499ZM23.7303 12.8666V3.19994H22.2303V12.8666H23.7303ZM21.0386 0.516602H3.56284V2.0166H21.0386V0.516602ZM23.7303 3.19994C23.7303 1.7149 22.5221 0.516602 21.0386 0.516602V2.0166C21.6998 2.0166 22.2303 2.54947 22.2303 3.19994H23.7303ZM21.0386 15.5499C22.5221 15.5499 23.7303 14.3516 23.7303 12.8666H22.2303C22.2303 13.5171 21.6998 14.0499 21.0386 14.0499V15.5499ZM0.871094 16.3329C0.871094 17.8683 2.72794 18.6229 3.80766 17.5479L2.7493 16.4849C2.60579 16.6278 2.37109 16.5199 2.37109 16.3329H0.871094ZM2.37109 3.19994C2.37109 2.54947 2.90158 2.0166 3.56284 2.0166V0.516602C2.0793 0.516602 0.871094 1.7149 0.871094 3.19994H2.37109Z" fill="#2196F3"/>
</svg>
