<svg width="56" height="60" viewBox="0 0 56 60" fill="none" xmlns="http://www.w3.org/2000/svg">
<path d="M55.0243 19.977C54.4555 19.3554 53.6519 19.001 52.8093 19H42.9303C42.4332 18.2072 41.8529 17.4697 41.1993 16.8C40.2585 15.864 39.1792 15.0785 37.9993 14.471V12C37.9925 10.1816 36.76 8.5966 34.9993 8.14201V5.81601C36.3758 5.33115 37.202 3.92416 36.9547 2.48583C36.7074 1.04749 35.4587 -0.00275995 33.9993 5.4483e-06H20.9993C19.3424 5.4483e-06 17.9993 1.34315 17.9993 3.00001C17.9993 4.65686 19.3424 6.00001 20.9993 6.00001H28.9993V8.14201C27.2386 8.5966 26.0061 10.1816 25.9993 12V14.466C21.7063 16.7137 19.0114 21.1542 18.9993 26V36H6.99929C5.34244 36 3.99929 37.3432 3.99929 39V42.631L3.63929 43.053C2.24364 44.632 1.29738 46.5566 0.899291 48.626C0.526436 50.7017 0.760106 52.8408 1.57229 54.787C2.47268 57.0134 4.23805 58.7792 6.46429 59.68C7.01372 59.9002 7.60145 60.009 8.19329 60H49.9993C51.6561 60 52.9993 58.6569 52.9993 57V53.048L55.7993 22.271C55.8747 21.4314 55.5934 20.5988 55.0243 19.977ZM53.5483 21.326C53.7387 21.5326 53.8321 21.8104 53.8053 22.09L53.6313 24H38.3673L38.1933 22.09C38.1679 21.8096 38.262 21.5315 38.4524 21.324C38.6427 21.1165 38.9117 20.9989 39.1933 21H52.8093C53.0908 20.9984 53.3597 21.117 53.5483 21.326ZM51.0863 52H40.9123L38.5493 26H53.4493L51.0863 52ZM19.9993 3.00001C19.9993 2.44772 20.447 2.00001 20.9993 2.00001H33.9993C34.5516 2.00001 34.9993 2.44772 34.9993 3.00001C34.9993 3.55229 34.5516 4.00001 33.9993 4.00001H20.9993C20.447 4.00001 19.9993 3.55229 19.9993 3.00001ZM32.9993 6.00001V8.00001H30.9993V6.00001H32.9993ZM29.9993 10H33.9993C35.1039 10 35.9993 10.8954 35.9993 12V13.631C33.397 12.8025 30.6016 12.8025 27.9993 13.631V12C27.9993 10.8954 28.8947 10 29.9993 10ZM20.9993 26C21.008 21.6997 23.5101 17.7949 27.4133 15.99C30.3289 14.677 33.6676 14.677 36.5833 15.99C37.7746 16.5353 38.8585 17.2899 39.7833 18.218C40.0273 18.462 40.2473 18.732 40.4693 19.001H39.1893C38.3463 19.0004 37.542 19.3545 36.9731 19.9766C36.4043 20.5987 36.1234 21.4314 36.1993 22.271L38.9993 53.048V57C39.0026 57.3414 39.0648 57.6798 39.1833 58H28.1773C29.1496 57.1043 29.9156 56.008 30.4223 54.787C31.2344 52.8411 31.4681 50.7023 31.0953 48.627C30.6986 46.5576 29.7537 44.6327 28.3593 43.053L27.9993 42.631V39C27.9993 37.3432 26.6561 36 24.9993 36H20.9993V26ZM19.9993 58H8.19329C7.8652 58.0079 7.53874 57.9515 7.23229 57.834C5.48898 57.1363 4.10964 55.7519 3.41829 54.006C2.75578 52.4137 2.56689 50.664 2.87429 48.967C3.20926 47.2517 3.99876 45.6579 5.16029 44.352L5.46029 44H7.99929C8.55158 44 8.99929 43.5523 8.99929 43C8.99929 42.4477 8.55158 42 7.99929 42H5.99929V39C5.99929 38.4477 6.44701 38 6.99929 38H24.9993C25.5516 38 25.9993 38.4477 25.9993 39V42H12.9993C12.447 42 11.9993 42.4477 11.9993 43C11.9993 43.5523 12.447 44 12.9993 44H26.5383L26.8383 44.352C28 45.6581 28.7895 47.2523 29.1243 48.968C29.4317 50.6647 29.2428 52.414 28.5803 54.006C27.8881 55.7523 26.5076 57.1367 24.7633 57.834C24.4579 57.9517 24.1324 58.0081 23.8053 58H19.9993ZM50.9993 57C50.9993 57.5523 50.5516 58 49.9993 58H41.9993C41.447 58 40.9993 57.5523 40.9993 57V54H50.9993V57Z" fill="#EC7451"/>
<path d="M29.072 19.6312C29.3966 19.4819 29.6168 19.1707 29.6498 18.815C29.6827 18.4592 29.5234 18.1129 29.2318 17.9065C28.9402 17.7 28.5606 17.6649 28.236 17.8142C25.0465 19.2921 23.0038 22.4859 23 26.0012C23 26.5535 23.4477 27.0012 24 27.0012C24.5523 27.0012 25 26.5535 25 26.0012C25.0029 23.2666 26.5913 20.7818 29.072 19.6312Z" fill="#EC7451"/>
<path d="M23 48H9C8.44772 48 8 48.4477 8 49C8 49.5523 8.44772 50 9 50H23C23.5523 50 24 49.5523 24 49C24 48.4477 23.5523 48 23 48Z" fill="#EC7451"/>
<path d="M20 51.998H12C11.4477 51.998 11 52.4458 11 52.998C11 53.5503 11.4477 53.998 12 53.998H20C20.5523 53.998 21 53.5503 21 52.998C21 52.4458 20.5523 51.998 20 51.998Z" fill="#EC7451"/>
</svg>
