<svg width="55" height="60" viewBox="0 0 55 60" fill="none" xmlns="http://www.w3.org/2000/svg">
<g clip-path="url(#clip0)">
<path d="M29.7183 21.3584C29.4065 21.7014 28.901 21.7014 28.5893 21.3584C28.2775 21.0155 28.2775 20.4595 28.5893 20.1166C28.901 19.7736 29.4065 19.7736 29.7183 20.1166C30.03 20.4596 30.03 21.0155 29.7183 21.3584Z" fill="#EC7451"/>
<path d="M14.5893 17.2842C14.2776 17.6271 13.7721 17.6271 13.4604 17.2842C13.1486 16.9413 13.1486 16.3853 13.4604 16.0424C13.7721 15.6994 14.2776 15.6994 14.5893 16.0424C14.9011 16.3853 14.9011 16.9413 14.5893 17.2842Z" fill="#EC7451"/>
<path d="M27.812 18.1631C27.5002 18.506 26.9948 18.506 26.683 18.1631C26.3713 17.8202 26.3713 17.2642 26.683 16.9213C26.9948 16.5783 27.5002 16.5783 27.812 16.9213C28.1237 17.2642 28.1237 17.8202 27.812 18.1631Z" fill="#EC7451"/>
<path d="M11.2807 13.6475C10.969 13.9904 10.4635 13.9904 10.1518 13.6475C9.84003 13.3046 9.84003 12.7486 10.1518 12.4056C10.4635 12.0627 10.969 12.0627 11.2807 12.4056C11.5925 12.7486 11.5925 13.3046 11.2807 13.6475Z" fill="#EC7451"/>
<path d="M42.6909 17.2842C42.3792 17.6271 41.8737 17.6271 41.5619 17.2842C41.2502 16.9413 41.2502 16.3853 41.5619 16.0424C41.8737 15.6994 42.3792 15.6994 42.6909 16.0424C43.0027 16.3853 43.0027 16.9413 42.6909 17.2842Z" fill="#EC7451"/>
<path d="M44.3433 13.6475C44.0315 13.9904 43.526 13.9904 43.2143 13.6475C42.9025 13.3046 42.9025 12.7486 43.2143 12.4056C43.526 12.0627 44.0315 12.0627 44.3433 12.4056C44.6549 12.7486 44.655 13.3046 44.3433 13.6475Z" fill="#EC7451"/>
<path d="M22.2872 24.8167C23.6388 24.8167 24.7385 23.6071 24.7385 22.1203C24.7385 20.6335 23.6388 19.4238 22.2872 19.4238C20.9355 19.4238 19.8359 20.6335 19.8359 22.1203C19.8359 23.6072 20.9355 24.8167 22.2872 24.8167ZM22.2872 21.18C22.7586 21.18 23.1419 21.6019 23.1419 22.1203C23.1419 22.6387 22.7584 23.0605 22.2872 23.0605C21.8159 23.0605 21.4325 22.6387 21.4325 22.1203C21.4325 21.6019 21.816 21.18 22.2872 21.18Z" fill="#EC7451"/>
<path d="M4.96094 18.4836C4.96094 19.9705 6.06063 21.18 7.41226 21.18C8.76389 21.18 9.86348 19.9703 9.86348 18.4836C9.86348 16.9968 8.76389 15.7871 7.41226 15.7871C6.06063 15.7871 4.96094 16.9967 4.96094 18.4836ZM8.26694 18.4836C8.26694 19.002 7.88345 19.4238 7.41226 19.4238C6.94086 19.4238 6.55748 19.002 6.55748 18.4836C6.55748 17.9651 6.94096 17.5433 7.41226 17.5433C7.88356 17.5433 8.26694 17.9651 8.26694 18.4836Z" fill="#EC7451"/>
<path d="M47.084 21.18C48.4356 21.18 49.5353 19.9703 49.5353 18.4836C49.5353 16.9968 48.4356 15.7871 47.084 15.7871C45.7324 15.7871 44.6328 16.9968 44.6328 18.4836C44.6328 19.9703 45.7324 21.18 47.084 21.18ZM47.084 17.5433C47.5554 17.5433 47.9388 17.9651 47.9388 18.4836C47.9388 19.002 47.5553 19.4238 47.084 19.4238C46.6127 19.4238 46.2293 19.002 46.2293 18.4836C46.2293 17.9651 46.6127 17.5433 47.084 17.5433Z" fill="#EC7451"/>
<path d="M53.6968 47.3065H51.1498C50.7748 43.1504 47.9825 40.5963 44.5674 39.4097C44.8312 38.4011 44.8138 37.3953 44.5152 36.3924C44.0173 34.7704 43.7644 33.0923 43.7993 31.3813C43.7993 30.8964 43.442 30.5032 43.001 30.5032C42.56 30.5032 42.2027 30.8964 42.2027 31.3813C42.1676 33.2841 42.4485 35.1497 43.0023 36.9533C43.1947 37.6009 43.207 38.2506 43.039 38.9023C41.1286 38.2976 39.212 37.8016 37.2945 37.4151C37.6251 35.3795 38.1615 33.7991 38.1615 31.6401V27.0725C38.8376 26.4608 39.3389 25.7108 39.6652 24.8226H42.2028V27.554C42.2028 28.039 42.5602 28.4321 43.0011 28.4321C43.4421 28.4321 43.7994 28.039 43.7994 27.554V24.8226H49.9556C54.4308 24.8226 55.932 18.4829 53.1207 14.9838C49.3602 10.3033 45.2138 7.57291 40.8835 7.32224C36.9406 7.09382 32.9922 8.87506 29.4351 12.4771C27.9872 12.1767 26.5286 12.1773 25.0805 12.4802C23.8806 11.2572 22.6285 10.2363 21.3536 9.44231C20.9701 9.20324 20.4828 9.35181 20.2656 9.77376C20.0483 10.1957 20.1833 10.7316 20.5669 10.9705C21.4705 11.5333 22.3649 12.224 23.2374 13.0316C19.7464 14.3937 14.2906 18.4417 14.4936 23.0664H4.52565C1.46275 23.0664 1.06255 18.0796 2.60651 16.1023C7.21134 10.2071 12.3729 7.94346 17.5354 9.55717C17.9594 9.68947 18.4009 9.41901 18.5215 8.95245C18.642 8.48601 18.3958 8.00036 17.9718 7.86783C11.5482 5.85992 5.48442 9.72284 1.39537 14.9578C-1.04435 18.0824 0.0335275 24.8226 4.52554 24.8226H10.6957V31.6401C10.6957 33.358 10.4712 34.9483 10.028 36.3672C9.72344 37.3842 9.70215 38.3943 9.96398 39.3972C6.53228 40.5872 3.72674 43.0523 3.34506 47.3065H0.798268C0.357305 47.3065 0 47.6996 0 48.1846V51.821C0 52.306 0.357305 52.6991 0.798268 52.6991H53.6968C54.1378 52.6991 54.4951 52.306 54.4951 51.821V48.1846C54.4951 47.6996 54.1378 47.3065 53.6968 47.3065ZM36.5649 31.6401C36.5649 33.6634 36.0258 35.2043 35.7202 37.1226C34.1572 36.8565 32.5944 36.6634 31.0348 36.5438C30.7082 35.35 30.5428 34.1952 30.5428 33.1047V27.972H35.9045C36.1281 27.972 36.3488 27.9483 36.5649 27.9019V31.6401ZM18.8137 37.1159C18.5246 35.3254 17.9301 33.8188 17.9301 31.9421V27.9026C18.1435 27.9485 18.3603 27.972 18.5788 27.972H23.9522V32.8378C23.9522 34.1683 23.7994 35.4106 23.4967 36.541C21.938 36.6594 20.3761 36.8512 18.8137 37.1159ZM25.5488 32.8378V27.972H28.9463V33.1047C28.9463 34.1785 29.0825 35.2976 29.3516 36.4434C28.6493 36.4134 27.9479 36.3983 27.2476 36.3983C26.5573 36.3983 25.866 36.4129 25.1739 36.4421C25.4229 35.3175 25.5488 34.11 25.5488 32.8378ZM40.7995 9.07597C44.68 9.30065 48.5198 11.7366 51.9038 16.1208C53.1213 17.697 53.2358 19.9432 52.1813 21.5836C51.5678 22.5397 50.7774 23.0664 49.9555 23.0664H40.0119C40.0766 21.6638 39.66 20.235 38.7769 19.0922C36.4721 16.1062 33.9317 14.0593 31.2845 13.0281C34.3081 10.2513 37.5754 8.8897 40.7995 9.07597ZM16.9482 20.2128C20.1184 16.1533 23.6846 14.0086 27.2636 14.0086H27.2923C30.8773 14.0201 34.2001 16.3976 37.5598 20.2288C39.218 22.1197 38.268 26.2158 35.9045 26.2158H18.5789C15.9625 26.2158 15.6368 21.8917 16.9482 20.2128ZM11.5378 36.9376C12.0384 35.3349 12.2923 33.5526 12.2923 31.6401V24.8226H14.8305C15.1542 25.7297 15.6552 26.4816 16.3336 27.0783V31.9421C16.3336 33.9504 16.9223 35.501 17.2392 37.4074C15.3211 37.7925 13.404 38.2873 11.4929 38.8907C11.4358 38.6734 11.4099 37.3477 11.5378 36.9376ZM52.8986 50.9429H1.59654V49.0626H25.5286C25.9696 49.0626 26.3269 48.6695 26.3269 48.1846C26.3269 47.6996 25.9696 47.3065 25.5286 47.3065H4.9515C5.25016 44.6541 6.94908 42.3563 9.25895 41.4976C20.969 37.1464 33.5308 37.148 45.2365 41.4976C47.5873 42.3706 49.2423 44.6435 49.5434 47.3063H29.0069C28.566 47.3063 28.2087 47.6995 28.2087 48.1844C28.2087 48.6694 28.566 49.0625 29.0069 49.0625H52.8986V50.9429Z" fill="#EC7451"/>
</g>
<defs>
<clipPath id="clip0">
<rect width="54.5455" height="60" fill="white"/>
</clipPath>
</defs>
</svg>
