<svg width="22" height="22" viewBox="0 0 22 22" fill="none" xmlns="http://www.w3.org/2000/svg">
<path d="M6.50102 15.834C6.50102 16.2482 6.83681 16.584 7.25102 16.584C7.66524 16.584 8.00102 16.2482 8.00102 15.834H6.50102ZM11.1345 5.41732C10.7203 5.41732 10.3845 5.7531 10.3845 6.16732C10.3845 6.58153 10.7203 6.91732 11.1345 6.91732V5.41732ZM16.9598 6.91732C17.374 6.91732 17.7098 6.58153 17.7098 6.16732C17.7098 5.7531 17.374 5.41732 16.9598 5.41732V6.91732ZM11.1345 9.28398C10.7203 9.28398 10.3845 9.61977 10.3845 10.034C10.3845 10.4482 10.7203 10.784 11.1345 10.784V9.28398ZM14.0471 10.784C14.4614 10.784 14.7971 10.4482 14.7971 10.034C14.7971 9.61977 14.4614 9.28398 14.0471 9.28398V10.784ZM9.19277 2.08398H18.9015V0.583984H9.19277V2.08398ZM8.00102 15.834V3.26732H6.50102V15.834H8.00102ZM20.0933 17.7673C20.0933 18.9517 19.1281 19.9173 17.9306 19.9173V21.4173C19.9504 21.4173 21.5933 19.7862 21.5933 17.7673H20.0933ZM17.9306 19.9173C16.7332 19.9173 15.768 18.9517 15.768 17.7673H14.268C14.268 19.7862 15.9109 21.4173 17.9306 21.4173V19.9173ZM4.3384 19.9173C3.14095 19.9173 2.17578 18.9517 2.17578 17.7673H0.675781C0.675781 19.7862 2.31867 21.4173 4.3384 21.4173V19.9173ZM3.36753 16.584H13.0763V15.084H3.36753V16.584ZM4.3384 21.4173H17.9306V19.9173H4.3384V21.4173ZM20.0933 3.26732V17.7673H21.5933V3.26732H20.0933ZM11.1345 6.91732H16.9598V5.41732H11.1345V6.91732ZM11.1345 10.784H14.0471V9.28398H11.1345V10.784ZM13.0763 16.584C13.7375 16.584 14.268 17.1168 14.268 17.7673H15.768C15.768 16.2823 14.5598 15.084 13.0763 15.084V16.584ZM2.17578 17.7673C2.17578 17.1168 2.70627 16.584 3.36753 16.584V15.084C1.88399 15.084 0.675781 16.2823 0.675781 17.7673H2.17578ZM18.9015 2.08398C19.5628 2.08398 20.0933 2.61685 20.0933 3.26732H21.5933C21.5933 1.78229 20.385 0.583984 18.9015 0.583984V2.08398ZM9.19277 0.583984C7.70924 0.583984 6.50102 1.78229 6.50102 3.26732H8.00102C8.00102 2.61685 8.53151 2.08398 9.19277 2.08398V0.583984Z" fill="white"/>
</svg>
