<svg width="60" height="60" viewBox="0 0 60 60" fill="none" xmlns="http://www.w3.org/2000/svg">
<g clip-path="url(#clip0)">
<path d="M52.7619 34.0178C52.2844 33.505 51.6932 33.0743 51.032 32.7333C51.78 27.7612 49.135 22.8687 44.4099 20.3871C45.4134 18.8311 45.6961 17.0793 45.1783 15.4086C44.5878 13.503 43.0618 11.9563 41.1543 11.2534C41.1741 9.26051 40.236 6.24038 35.8588 2.83036C32.7186 0.383275 30.9652 -0.302267 29.8063 0.462727C29.3838 0.741749 28.7372 1.44557 29.1551 3.02771C29.3461 3.74079 29.3536 4.45445 29.1756 4.9866C28.7097 6.38229 27.9112 7.38564 26.9236 8.19153C26.7691 7.69537 26.5472 7.21795 26.2586 6.76971C25.4211 5.47023 24.1274 4.57492 22.6157 4.24856C21.5464 4.0177 20.4595 4.0927 19.4546 4.45211C19.0912 3.39122 19.3116 2.65822 19.8398 1.7703C20.1707 1.21401 19.9881 0.494954 19.4319 0.164019C18.8757 -0.167033 18.1566 0.0157776 17.8257 0.571945C16.7911 2.31099 16.6569 3.88786 17.4243 5.69605C15.4354 7.57185 14.9989 10.6631 16.5332 13.0405C16.8492 13.5307 17.2362 13.9645 17.6769 14.3345C16.541 15.9387 15.9529 18.1515 16.4545 21.4443C16.1588 21.5393 15.8783 21.6348 15.6152 21.7314C13.1519 22.6331 11.2337 24.1159 10.0677 26.0194C8.88354 27.9525 8.55143 30.2343 9.0885 32.6713C8.37788 33.0216 7.74378 33.4744 7.23706 34.0188C5.95727 35.3936 5.63735 37.179 6.35875 38.9166L12.6574 54.1095C13.6315 56.4546 15.1033 59.9987 18.9054 59.9987H23.3536C23.3699 59.9989 23.3862 59.9989 23.4027 59.9987H36.5948C36.6031 59.9988 36.6113 59.9989 36.6195 59.9989C36.6277 59.9989 36.636 59.9989 36.6441 59.9987H41.0956C44.8977 59.9987 46.3696 56.4546 47.3438 54.1088L53.6425 38.9168C54.3634 37.1782 54.0423 35.3927 52.7619 34.0178ZM31.3985 5.72944C31.7765 4.59965 31.6517 3.45778 31.4952 2.73568C32.0292 2.98927 32.9429 3.52927 34.4183 4.67898C37.3779 6.98475 38.8957 9.29285 38.8075 11.3537C38.725 13.2794 37.2208 14.6498 35.9733 15.4603C33.0575 17.3549 27.5703 18.6592 22.729 19.8099C21.3258 20.1434 19.9628 20.4674 18.7264 20.7923C18.335 17.9106 18.9493 16.2213 20.1668 14.9952C20.3559 14.8441 20.5197 14.6605 20.7094 14.5075C20.8919 14.3604 21.0813 14.2218 21.2751 14.0901C21.7025 13.7996 22.1513 13.5419 22.6068 13.2985C23.6099 12.7626 24.6465 12.2927 25.6533 11.7638C27.2332 10.9339 28.7551 9.9389 29.8825 8.53255C30.5522 7.69759 31.0598 6.74393 31.3985 5.72944ZM22.1214 6.53955C23.0208 6.73373 23.7905 7.26635 24.2883 8.03884C24.5867 8.50231 24.7656 9.01758 24.8201 9.55336C24.2817 9.84328 23.7226 10.1178 23.1569 10.3958C21.8464 11.0394 20.4762 11.7124 19.3066 12.6409C18.9925 12.4011 18.7202 12.1076 18.5028 11.7703C17.4737 10.1756 17.9336 8.04071 19.5274 7.0117C20.3008 6.51307 21.2222 6.34549 22.1214 6.53955ZM16.4216 23.9322C18.0796 23.3241 20.6014 22.7248 23.2711 22.0902C28.2975 20.8955 33.9944 19.5414 37.2504 17.4256C38.9165 16.3429 40.0723 15.0421 40.6733 13.5936C41.7451 14.0954 42.604 15.0196 42.9394 16.1023C43.351 17.4305 42.9299 18.7803 41.722 20.0049C41.7207 20.0062 41.7193 20.0075 41.718 20.0089C41.7169 20.01 41.7158 20.011 41.7146 20.0121C39.2629 22.4909 34.75 24.5436 31.123 26.1934C30.5812 26.4398 30.3061 27.0762 30.4994 27.6394C30.721 28.2846 31.4709 28.6099 32.0934 28.3268C35.6413 26.713 39.9974 24.731 42.8031 22.2094C46.3409 23.8713 49.2479 27.5407 48.7704 31.9706C47.4309 31.7234 46.0101 31.7858 44.7367 32.2107C43.2888 32.6938 42.1421 33.5618 41.3462 34.7495C40.129 32.8881 38.0264 31.6557 35.6415 31.6557C33.2974 31.6557 31.2257 32.8451 29.999 34.6518C28.7729 32.8451 26.7023 31.6557 24.3593 31.6557C21.9743 31.6557 19.8717 32.8883 18.6544 34.7495C17.8583 33.5617 16.7112 32.6935 15.2627 32.2104C14.0215 31.7964 12.6404 31.7271 11.3311 31.9525C10.2833 26.6457 14.9018 24.4886 16.4216 23.9322ZM18.9056 57.6552C17.0139 57.6552 16.0463 56.1585 14.8222 53.2115L8.52366 38.0187C8.1537 37.1276 8.29807 36.3191 8.95279 35.6158C9.41439 35.1198 10.8018 34.0616 12.7714 34.1618C13.3703 34.1923 13.9686 34.2495 14.5216 34.4339C15.7448 34.8419 17.2625 35.8915 17.5532 38.5754C17.5559 38.6046 21.9092 57.6553 21.9092 57.6553H18.9056V57.6552ZM35.6848 57.6552H31.1709V53.8921C31.1709 53.2449 30.6461 52.7202 29.999 52.7202C29.3519 52.7202 28.8272 53.2449 28.8272 53.8921V57.6552H24.3133L19.8937 38.3432C19.96 35.9367 21.9379 33.9995 24.3594 33.9995C26.8228 33.9995 28.8271 36.0041 28.8271 38.4681V43.3997C28.8271 44.0469 29.3518 44.5715 29.9989 44.5715C30.646 44.5715 31.1708 44.0469 31.1708 43.3997V38.468C31.1708 36.004 33.1763 33.9994 35.6416 33.9994C38.0631 33.9994 40.041 35.9366 40.1073 38.3431L35.6848 57.6552ZM51.4776 38.0192L45.1794 53.2108C43.9551 56.1585 42.9874 57.6552 41.0958 57.6552H38.0892C38.0892 57.6552 42.4455 38.6051 42.4482 38.5751C42.7391 35.8917 44.2561 34.842 45.4787 34.4339C46.6605 34.0398 48.0182 33.9981 49.3859 34.5496C50.0411 34.7972 50.6207 35.1576 51.0469 35.6152C51.7023 36.3189 51.8472 37.1277 51.4776 38.0192Z" fill="#EC7451"/>
<path d="M30 47.4756C29.3529 47.4756 28.8281 48.0002 28.8281 48.6475V48.654C28.8281 49.3012 29.3529 49.8226 30 49.8226C30.6471 49.8226 31.1719 49.2947 31.1719 48.6475C31.1719 48.0002 30.6472 47.4756 30 47.4756Z" fill="#EC7451"/>
</g>
<defs>
<clipPath id="clip0">
<rect width="60" height="60" fill="white"/>
</clipPath>
</defs>
</svg>
