<svg width="16" height="16" viewBox="0 0 16 16" fill="none" xmlns="http://www.w3.org/2000/svg">
<path d="M1.33203 14.6665H0.582031C0.582031 15.0807 0.917818 15.4165 1.33203 15.4165L1.33203 14.6665ZM14.3892 3.05699L14.9196 2.52666V2.52666L14.3892 3.05699ZM12.9415 1.60927L12.4112 2.1396V2.1396L12.9415 1.60927ZM11.0559 1.60927L10.5256 1.07894V1.07894L11.0559 1.60927ZM1.72256 10.9426L2.25289 11.4729L2.25289 11.4729L1.72256 10.9426ZM5.05589 14.2759L4.52556 13.7456L5.05589 14.2759ZM12.6654 6.66647L13.1957 7.1968L12.6654 6.66647ZM14.3892 4.94261L13.8589 4.41228L13.8589 4.41228L14.3892 4.94261ZM0.582031 11.8854V14.6665H2.08203V11.8854H0.582031ZM1.33203 15.4165H4.11308V13.9165H1.33203V15.4165ZM14.9196 2.52666L13.4718 1.07894L12.4112 2.1396L13.8589 3.58732L14.9196 2.52666ZM10.5256 1.07894L8.8017 2.8028L9.86236 3.86346L11.5862 2.1396L10.5256 1.07894ZM8.8017 2.8028L1.19223 10.4123L2.25289 11.4729L9.86236 3.86346L8.8017 2.8028ZM5.58622 14.8063L13.1957 7.1968L12.135 6.13614L4.52556 13.7456L5.58622 14.8063ZM13.1957 7.1968L14.9196 5.47294L13.8589 4.41228L12.135 6.13614L13.1957 7.1968ZM8.8017 3.86346L12.135 7.1968L13.1957 6.13614L9.86236 2.8028L8.8017 3.86346ZM13.8589 3.58732C14.0867 3.81513 14.0867 4.18447 13.8589 4.41228L14.9196 5.47294C15.7331 4.65934 15.7331 3.34025 14.9196 2.52666L13.8589 3.58732ZM4.11308 15.4165C4.66561 15.4165 5.19552 15.197 5.58622 14.8063L4.52556 13.7456C4.41616 13.855 4.26779 13.9165 4.11308 13.9165V15.4165ZM2.08203 11.8854C2.08203 11.7307 2.14349 11.5823 2.25289 11.4729L1.19223 10.4123C0.801524 10.803 0.582031 11.3329 0.582031 11.8854H2.08203ZM13.4718 1.07894C12.6582 0.26535 11.3392 0.265354 10.5256 1.07894L11.5862 2.13961C11.814 1.9118 12.1834 1.9118 12.4112 2.1396L13.4718 1.07894Z" fill="#505771"/>
</svg>
