<svg width="12" height="12" viewBox="0 0 12 12" fill="none" xmlns="http://www.w3.org/2000/svg">
<path d="M10.9998 6.74978C11.414 6.74978 11.7498 6.41399 11.7498 5.99978C11.7498 5.58557 11.414 5.24978 10.9998 5.24978L10.9998 6.74978ZM1.00022 5.24978C0.586008 5.24978 0.250222 5.58557 0.250221 5.99978C0.250222 6.41399 0.586008 6.74978 1.00022 6.74978L1.00022 5.24978ZM6.75 1C6.75 0.585786 6.41421 0.25 6 0.25C5.58579 0.25 5.25 0.585786 5.25 1H6.75ZM5.25 10.9996C5.25 11.4138 5.58579 11.7496 6 11.7496C6.41421 11.7496 6.75 11.4138 6.75 10.9996H5.25ZM10.9998 5.24978H1.00022L1.00022 6.74978H10.9998L10.9998 5.24978ZM5.25 1L5.25 10.9996H6.75L6.75 1H5.25Z" fill="white"/>
</svg>
