<svg width="17" height="14" viewBox="0 0 17 14" fill="none" xmlns="http://www.w3.org/2000/svg">
<path d="M15.259 5.55289L2.16802 0.120913C1.61652 -0.107952 0.993463 -0.00727327 0.542039 0.383528C0.090615 0.774392 -0.0981939 1.37663 0.0493547 1.95519L1.21456 6.52464H6.91959C7.18211 6.52464 7.39497 6.73747 7.39497 7.00002C7.39497 7.26254 7.18214 7.4754 6.91959 7.4754H1.21456L0.0493547 12.0448C-0.0981939 12.6234 0.0905833 13.2256 0.542039 13.6165C0.994382 14.0081 1.6175 14.1075 2.16805 13.8791L15.259 8.44714C15.855 8.19983 16.2253 7.64532 16.2253 7.00002C16.2253 6.35471 15.855 5.80017 15.259 5.55289Z" fill="white"/>
</svg>
