<svg width="40" height="40" viewBox="0 0 40 40" fill="none" xmlns="http://www.w3.org/2000/svg">
<path d="M23.75 1.25H37.5V15H23.75V1.25Z" fill="#976947"/>
<path d="M23.75 1.25H35V13.125H23.75V1.25Z" fill="#C18E59"/>
<path d="M5 35.6242V38.7492H2.5V34.668" fill="#976947"/>
<path d="M5 17.5V23.4819L2.5 24.375V17.5H5Z" fill="#976947"/>
<path d="M21.25 36.25V38.75H6.25V36.25H8.75V32.5H6.25V26.25H21.25V32.5H18.75V36.25H21.25Z" fill="#976947"/>
<path d="M18.75 36.25V32.5H16.875C16.3777 32.5 15.9008 32.6975 15.5492 33.0492C15.1975 33.4008 15 33.8777 15 34.375C15 34.8723 15.1975 35.3492 15.5492 35.7008C15.9008 36.0525 16.3777 36.25 16.875 36.25H18.75Z" fill="#FBE1CA"/>
<path d="M18.75 36.25V32.5H21.25V26.25H6.25V32.5H8.75V36.25H5C4.00544 36.25 3.05161 35.8549 2.34835 35.1517C1.64509 34.4484 1.25 33.4946 1.25 32.5V25.8444C1.25001 24.9037 1.62365 24.0015 2.28875 23.3363C2.83151 22.7934 3.5357 22.4412 4.29563 22.3325L11.875 21.25V21.875C12.4302 22.2454 13.0826 22.4431 13.75 22.4431C14.4174 22.4431 15.0698 22.2454 15.625 21.875V21.25L23.2044 22.3325C23.9643 22.4412 24.6685 22.7934 25.2113 23.3363C25.8763 24.0015 26.25 24.9037 26.25 25.8444V32.5C26.25 33.4946 25.8549 34.4484 25.1517 35.1517C24.4484 35.8549 23.4946 36.25 22.5 36.25H18.75Z" fill="#78A0D4"/>
<path d="M34.998 35H25.293C25.9089 34.3131 26.2491 33.4226 26.248 32.5H34.998V35Z" fill="#674025"/>
<path d="M1.25 15H38.75V17.5H1.25V15Z" fill="#674025"/>
<path d="M3.125 1.25H16.875V15H3.125V1.25Z" fill="#976947"/>
<path d="M8.125 1.25V6.57C8.54614 6.05839 9.05698 5.62782 9.6325 5.29937C10.3281 4.90211 11.0866 4.62668 11.875 4.485V1.25H8.125Z" fill="#F0AE42"/>
<path d="M18.75 14.4316V11.8173C18.7499 11.0769 18.5307 10.3532 18.12 9.73727L17.5 8.80664L16.6669 9.43164C15.585 10.243 14.2692 10.6816 12.9169 10.6816H11.25C10.587 10.6816 9.95107 10.945 9.48223 11.4139C9.01339 11.8827 8.75 12.5186 8.75 13.1816V14.4316C8.75 15.7577 9.27678 17.0295 10.2145 17.9672C11.1521 18.9049 12.4239 19.4316 13.75 19.4316C15.0761 19.4316 16.3479 18.9049 17.2855 17.9672C18.2232 17.0295 18.75 15.7577 18.75 14.4316Z" fill="#FBE1CA"/>
<path d="M18.75 14.4317V11.8173C18.7499 11.077 18.5307 10.3533 18.12 9.73734L17.5 8.80672L16.6669 9.43172C15.585 10.2431 14.2692 10.6817 12.9169 10.6817H11.25C10.587 10.6817 9.95107 10.9451 9.48223 11.414C9.01339 11.8828 8.75 12.5187 8.75 13.1817V14.4317L7.96938 13.3911C7.25888 12.444 6.87486 11.2919 6.875 10.108C6.8754 9.14348 7.13063 8.19621 7.61487 7.36208C8.0991 6.52795 8.79514 5.83658 9.6325 5.35797C10.6925 4.75224 11.8923 4.43362 13.1131 4.43359H14.3869C15.6076 4.43305 16.8073 4.75102 17.8675 5.35609C18.7051 5.83487 19.4014 6.52653 19.8856 7.36102C20.3699 8.1955 20.6249 9.14316 20.625 10.108C20.6251 11.2919 20.2411 12.444 19.5306 13.3911L18.75 14.4317Z" fill="#C18E59"/>
<path d="M15.625 19.0684V21.9315C15.0698 22.3019 14.4174 22.4996 13.75 22.4996C13.0826 22.4996 12.4302 22.3019 11.875 21.9315V19.0684C12.4708 19.3091 13.1074 19.4324 13.75 19.4315C14.3926 19.4324 15.0292 19.3091 15.625 19.0684Z" fill="#F4D0B5"/>
<path d="M11.875 26.25V30H15.625V26.25" fill="#F0AE42"/>
<path d="M11.875 26.25H14.375V28.75H11.875V26.25Z" fill="#F9D266"/>
<path d="M8.75 32.5H10.625C11.1223 32.5 11.5992 32.6975 11.9508 33.0492C12.3025 33.4008 12.5 33.8777 12.5 34.375C12.5 34.8723 12.3025 35.3492 11.9508 35.7008C11.5992 36.0525 11.1223 36.25 10.625 36.25H8.75" fill="#FBE1CA"/>
<path d="M28.75 1.25V6.25H32.5V1.25" fill="#F0AE42"/>
<path d="M31.875 11.875H35.625V13.125H31.875V11.875Z" fill="#674025"/>
<path d="M37.5 17.5V38.75H35V17.5" fill="#976947"/>
<path d="M28.75 1.25H30.625V4.75937H28.75V1.25Z" fill="#F9D266"/>
<path d="M8.125 1.25H10V4.43187H8.125V1.25Z" fill="#F9D266"/>
</svg>
