<svg width="39" height="40" viewBox="0 0 39 40" fill="none" xmlns="http://www.w3.org/2000/svg">
<path d="M38.4234 20.102V39.2007C38.4234 39.6417 38.0653 39.9999 37.6234 39.9999H20.507C20.0652 39.9999 19.707 39.6418 19.707 39.2007V20.102C19.707 19.6601 20.0652 19.3027 20.507 19.3027H26.4386V25.0476C26.4386 25.2665 26.6165 25.4444 26.8354 25.4444H30.0958C30.3147 25.4444 30.4926 25.2665 30.4926 25.0476V19.3027H37.6235C38.0653 19.3028 38.4234 19.6602 38.4234 20.102V20.102Z" fill="#FB9927"/>
<path d="M30.894 19.3027V26.7265C30.894 27.1675 30.5359 27.5257 30.0948 27.5257H26.8344C26.3934 27.5257 26.0352 27.1676 26.0352 26.7265V19.3027H26.4376V25.0476C26.4376 25.2665 26.6155 25.4444 26.8344 25.4444H30.0948C30.3137 25.4444 30.4916 25.2665 30.4916 25.0476V19.3027H30.894Z" fill="#F98824"/>
<path d="M35.6978 20.1021C35.6978 19.6609 35.3397 19.3027 34.8984 19.3027H37.622C38.0633 19.3027 38.4214 19.6609 38.4214 20.1021V39.2009C38.4214 39.6421 38.0633 40.0003 37.622 40.0003H34.8984C35.3397 40.0003 35.6978 39.6421 35.6978 39.2009" fill="#F98824"/>
<path d="M35.1852 37.4859H29.8658C29.4243 37.4859 29.0664 37.128 29.0664 36.6865V33.6881C29.0664 33.2466 29.4243 32.8887 29.8658 32.8887H35.1852C35.6267 32.8887 35.9846 33.2466 35.9846 33.6881V36.6865C35.9846 37.128 35.6267 37.4859 35.1852 37.4859V37.4859Z" fill="#68DBF9"/>
<path d="M35.9842 33.6861V36.6847C35.9842 37.1268 35.626 37.4841 35.1848 37.4841H33.0703C33.5116 37.4841 33.8697 37.1267 33.8697 36.6847V33.6861C33.8697 33.2448 33.5116 32.8867 33.0703 32.8867H35.1848C35.626 32.8867 35.9842 33.2448 35.9842 33.6861V33.6861Z" fill="#24D1F8"/>
<path d="M30.8939 25.0478V19.3027H26.0352V25.0478C26.0352 25.4893 26.393 25.8471 26.8345 25.8471H30.0945C30.536 25.8472 30.8939 25.4893 30.8939 25.0478V25.0478Z" fill="#FEE7C9"/>
<path d="M35.9817 31.3009H31.5645C31.2311 31.3009 30.9609 31.0307 30.9609 30.6973C30.9609 30.364 31.2312 30.0938 31.5645 30.0938H35.9817C36.3152 30.0938 36.5853 30.364 36.5853 30.6973C36.5853 31.0307 36.3152 31.3009 35.9817 31.3009Z" fill="#E8741C"/>
<path d="M35.9853 29.5002H35.0958C34.7623 29.5002 34.4922 29.2299 34.4922 28.8966C34.4922 28.5632 34.7624 28.293 35.0958 28.293H35.9853C36.3188 28.293 36.5889 28.5632 36.5889 28.8966C36.5889 29.2299 36.3188 29.5002 35.9853 29.5002Z" fill="#E8741C"/>
<path d="M28.6448 2.36095V29.6947H15.9076V39.9965H1.59923C0.716332 39.9965 0 39.2811 0 38.3982V2.36095C0 1.47727 0.716332 0.761719 1.59923 0.761719H27.0465C27.9294 0.761719 28.6448 1.47719 28.6448 2.36095Z" fill="#24D1F8"/>
<path d="M28.6458 28.8965V29.6957H15.9085V39.9976H13.4385C13.0305 39.9613 12.7109 39.6185 12.7109 39.2016V29.6957C12.7109 29.2538 13.0683 28.8965 13.5102 28.8965H28.6458Z" fill="#21C1F8"/>
<path d="M28.6457 2.36399V29.6953H25.8063V2.36399C25.8063 1.4811 25.0908 0.765625 24.207 0.765625H27.0465C27.9294 0.765625 28.6457 1.4811 28.6457 2.36399V2.36399Z" fill="#21C1F8"/>
<path d="M25.4488 4.76211V36.0034C25.4488 36.4444 25.0914 36.8026 24.6496 36.8026H3.99922C3.55735 36.8026 3.19922 36.4445 3.19922 36.0034V4.76211C3.19922 4.32024 3.55735 3.96289 3.99922 3.96289H24.6496C25.0915 3.96289 25.4488 4.32024 25.4488 4.76211V4.76211Z" fill="#F2EFF2"/>
<path d="M7.01172 3.96094V5.52313C7.01172 5.86274 7.22422 6.15173 7.52282 6.26759C7.51719 6.32876 7.52039 6.3915 7.53492 6.45509L7.87375 7.95932C8.01946 8.60401 8.58204 9.05393 9.24275 9.05393H19.4078C20.0686 9.05393 20.6312 8.60401 20.7768 7.95932L21.1156 6.45509C21.1301 6.3915 21.1334 6.32876 21.1277 6.26759C21.4263 6.15165 21.6387 5.86274 21.6387 5.52313V3.96094H7.01172ZM19.5994 7.69377C19.5784 7.78393 19.5004 7.84666 19.4078 7.84666H9.24275C9.15017 7.84666 9.07212 7.78385 9.05196 7.69377L8.74212 6.32236H19.9084L19.5994 7.69377Z" fill="#E1DDE1"/>
<path d="M25.4482 28.8945V36.002C25.4482 36.443 25.0908 36.8012 24.649 36.8012H12.7109V29.6938C12.7109 29.2519 13.0683 28.8945 13.5102 28.8945H25.4482Z" fill="#E1DDE1"/>
<path d="M16.1498 30.4064V32.4917C16.1498 32.936 15.7893 33.2966 15.345 33.2966H7.81657C7.37149 33.2966 7.01172 32.936 7.01172 32.4917V30.4064C7.01172 29.9621 7.37149 29.6016 7.81657 29.6016H15.345C15.7893 29.6016 16.1498 29.9622 16.1498 30.4064Z" fill="#23F1A8"/>
<path d="M16.1484 30.4044V32.4897C16.1484 32.934 15.7878 33.2946 15.3435 33.2946H12.7109V29.6938C12.7109 29.6616 12.7126 29.6302 12.7166 29.5996H15.3435C15.7878 29.5995 16.1484 29.9602 16.1484 30.4044Z" fill="#26D192"/>
<path d="M22.8502 4.76032C22.8502 4.31906 22.492 3.96094 22.0508 3.96094H24.6505C25.0917 3.96094 25.4499 4.31906 25.4499 4.76032V36.0013C25.4499 36.4426 25.0917 36.8007 24.6505 36.8007H22.0508C22.492 36.8007 22.8502 36.4426 22.8502 36.0013" fill="#E1DDE1"/>
<path d="M19.443 7.84723H9.20553C8.58209 7.84723 8.02732 7.42848 7.85638 6.82887L7.3006 4.87854C7.20927 4.55792 7.39505 4.22401 7.71568 4.1326C8.03662 4.04135 8.37029 4.22706 8.46162 4.54768L9.01741 6.49801C9.04123 6.58152 9.11858 6.63996 9.20545 6.63996H19.4429C19.5298 6.63996 19.6072 6.5816 19.6309 6.49801L20.1867 4.54776C20.2781 4.22713 20.6119 4.04151 20.9326 4.13268C21.2533 4.22409 21.439 4.558 21.3477 4.87862L20.7919 6.82895C20.6212 7.42848 20.0664 7.84723 19.443 7.84723V7.84723Z" fill="#918291"/>
<path d="M20.839 5.11893H7.8111C7.36961 5.11893 7.01172 4.76104 7.01172 4.31955V0.801332C7.01172 0.359846 7.36961 0.00195312 7.8111 0.00195312H20.8391C21.2805 0.00195312 21.6384 0.359846 21.6384 0.801332V4.31948C21.6384 4.76096 21.2805 5.11893 20.839 5.11893V5.11893Z" fill="#FEE265"/>
<path d="M21.6375 0.799379V4.3176C21.6375 4.75963 21.2794 5.11698 20.8381 5.11698H18.2305C18.6726 5.11698 19.0298 4.75963 19.0298 4.3176V0.799379C19.0298 0.358127 18.6725 0 18.2305 0H20.8381C21.2794 0 21.6375 0.358127 21.6375 0.799379V0.799379Z" fill="#FDD330"/>
<path d="M31.4274 29.6938V39.1996C31.4274 39.6406 31.0692 39.9988 30.6273 39.9988H15.9094C15.4675 39.9988 15.1094 39.6407 15.1094 39.1996V29.6938C15.1094 29.2519 15.4675 28.8945 15.9094 28.8945H21.841V33.2004C21.841 33.4193 22.0189 33.5972 22.2378 33.5972H24.299C24.5179 33.5972 24.6958 33.4193 24.6958 33.2004V28.8945H30.6273C31.0692 28.8945 31.4274 29.2519 31.4274 29.6938V29.6938Z" fill="#FCB44D"/>
<path d="M25.0971 28.8965V34.8812C25.0971 35.3222 24.7389 35.6804 24.2979 35.6804H22.2367C21.7957 35.6804 21.4375 35.3223 21.4375 34.8812V28.8965H21.8399V33.2024C21.8399 33.4213 22.0178 33.5992 22.2367 33.5992H24.2979C24.5168 33.5992 24.6947 33.4213 24.6947 33.2024V28.8965H25.0971Z" fill="#FCA62F"/>
<path d="M31.4253 29.6939V39.1997C31.4253 39.641 31.0672 39.9991 30.626 39.9991H27.9023C28.3436 39.9991 28.7017 39.641 28.7017 39.1997V29.6939C28.7017 29.2527 28.3436 28.8945 27.9023 28.8945H30.626C31.0672 28.8945 31.4253 29.2527 31.4253 29.6939V29.6939Z" fill="#FCA62F"/>
<path d="M25.0972 33.2006V28.8945H21.4375V33.2006C21.4375 33.6421 21.7954 33.9999 22.2369 33.9999H24.2977C24.7392 34 25.0972 33.6421 25.0972 33.2006V33.2006Z" fill="#FEE7C9"/>
<path d="M18.6069 36.3361H17.5059C17.1725 36.3361 16.9023 36.0659 16.9023 35.7325C16.9023 35.3991 17.1726 35.1289 17.5059 35.1289H18.607C18.9404 35.1289 19.2106 35.3991 19.2106 35.7325C19.2106 36.0659 18.9403 36.3361 18.6069 36.3361V36.3361Z" fill="#FB9927"/>
<path d="M22.0256 38.2775H17.5059C17.1725 38.2775 16.9023 38.0073 16.9023 37.6739C16.9023 37.3405 17.1726 37.0703 17.5059 37.0703H22.0256C22.359 37.0703 22.6292 37.3405 22.6292 37.6739C22.6292 38.0073 22.359 38.2775 22.0256 38.2775Z" fill="#FB9927"/>
<path d="M17.5726 18.2423H7.66219C7.32875 18.2423 7.05859 17.9721 7.05859 17.6388C7.05859 17.3054 7.32883 17.0352 7.66219 17.0352H17.5726C17.9061 17.0352 18.1762 17.3054 18.1762 17.6388C18.1762 17.9721 17.9061 18.2423 17.5726 18.2423Z" fill="#CECECE"/>
<path d="M21.1541 18.9423C20.994 18.9423 20.8405 18.8787 20.7272 18.7655L19.9932 18.0313C19.7575 17.7955 19.7575 17.4134 19.9933 17.1776C20.229 16.9419 20.6111 16.9419 20.8469 17.1776L21.1542 17.4849L22.1264 16.5127C22.3622 16.277 22.7443 16.277 22.9801 16.5127C23.2159 16.7484 23.2159 17.1306 22.9801 17.3664L21.5812 18.7654C21.4677 18.8787 21.3143 18.9423 21.1541 18.9423V18.9423Z" fill="#23F1A8"/>
<path d="M17.5726 21.5627H7.66219C7.32875 21.5627 7.05859 21.2924 7.05859 20.9591C7.05859 20.6257 7.32883 20.3555 7.66219 20.3555H17.5726C17.9061 20.3555 18.1762 20.6257 18.1762 20.9591C18.1762 21.2924 17.9061 21.5627 17.5726 21.5627Z" fill="#CECECE"/>
<path d="M21.1541 22.2606C20.994 22.2606 20.8405 22.197 20.7272 22.0838L19.9932 21.3497C19.7575 21.1139 19.7575 20.7318 19.9933 20.496C20.229 20.2602 20.6111 20.2603 20.8469 20.496L21.1542 20.8033L22.1264 19.8311C22.3622 19.5954 22.7443 19.5954 22.9801 19.8311C23.2159 20.0668 23.2159 20.449 22.9801 20.6848L21.5812 22.0837C21.4677 22.197 21.3143 22.2606 21.1541 22.2606Z" fill="#23F1A8"/>
<path d="M17.5726 24.8791H7.66219C7.32875 24.8791 7.05859 24.6088 7.05859 24.2755C7.05859 23.9421 7.32883 23.6719 7.66219 23.6719H17.5726C17.9061 23.6719 18.1762 23.9421 18.1762 24.2755C18.1762 24.6088 17.9061 24.8791 17.5726 24.8791Z" fill="#CECECE"/>
<path d="M21.1541 25.579C20.994 25.579 20.8405 25.5154 20.7272 25.4022L19.9932 24.668C19.7575 24.4323 19.7575 24.0501 19.9933 23.8144C20.229 23.5786 20.6111 23.5786 20.8469 23.8144L21.1542 24.1216L22.1264 23.1494C22.3622 22.9137 22.7443 22.9137 22.9801 23.1494C23.2159 23.3851 23.2159 23.7673 22.9801 24.0031L21.5812 25.4021C21.4677 25.5154 21.3143 25.579 21.1541 25.579Z" fill="#23F1A8"/>
<path d="M14.4238 14.7733C13.0334 14.7733 11.9023 13.6422 11.9023 12.2519C11.9023 10.8616 13.0334 9.73047 14.4238 9.73047C15.0827 9.73047 15.7059 9.98305 16.1789 10.4416C16.4105 10.6663 16.4245 11.0334 16.2105 11.2751L14.8702 12.7891C14.6492 13.0387 14.2677 13.0619 14.0181 12.841C13.7685 12.62 13.7453 12.2385 13.9663 11.9889L14.8381 11.0042C14.706 10.9606 14.5665 10.9377 14.4238 10.9377C13.6991 10.9377 13.1096 11.5273 13.1096 12.2519C13.1096 12.9765 13.6991 13.566 14.4238 13.566C14.927 13.566 15.3785 13.2854 15.6021 12.8338C15.7499 12.5351 16.1118 12.4126 16.4109 12.5606C16.7096 12.7085 16.8319 13.0706 16.684 13.3694C16.2553 14.2353 15.3892 14.7733 14.4238 14.7733V14.7733Z" fill="#26D192"/>
<path d="M9.24032 3.16868C8.90688 3.16868 8.63672 2.89844 8.63672 2.56508V2.55672C8.63672 2.22336 8.90696 1.95312 9.24032 1.95312C9.57368 1.95312 9.84391 2.22336 9.84391 2.55672V2.56508C9.84391 2.89836 9.57376 3.16868 9.24032 3.16868Z" fill="#EDBE26"/>
<path d="M19.4083 3.16868C19.0748 3.16868 18.8047 2.89844 18.8047 2.56508V2.55672C18.8047 2.22336 19.0749 1.95312 19.4083 1.95312C19.7417 1.95312 20.0119 2.22336 20.0119 2.55672V2.56508C20.0119 2.89836 19.7417 3.16868 19.4083 3.16868Z" fill="#EDBE26"/>
</svg>
