<svg width="40" height="40" viewBox="0 0 40 40" fill="none" xmlns="http://www.w3.org/2000/svg">
<g clip-path="url(#clip0_4201:10165)">
<path d="M39.1678 33.2513H26.8558C26.6205 33.2513 26.4297 33.0605 26.4297 32.8252V30.8539C26.4297 30.6185 26.6204 30.4277 26.8558 30.4277H39.1678C39.4031 30.4277 39.5939 30.6185 39.5939 30.8539V32.8252C39.5939 33.0604 39.4032 33.2513 39.1678 33.2513Z" fill="url(#paint0_linear_4201:10165)"/>
<path d="M37.6031 33.2513H28.4169C28.2126 33.2513 28.0469 33.0856 28.0469 32.8812V30.7978C28.0469 30.5934 28.2125 30.4277 28.4169 30.4277H37.6031C37.8074 30.4277 37.9731 30.5934 37.9731 30.7978V32.8812C37.9731 33.0855 37.8075 33.2513 37.6031 33.2513Z" fill="url(#paint1_linear_4201:10165)"/>
<path d="M34.5935 33.2513H31.4302C31.307 33.2513 31.207 33.1514 31.207 33.0281V30.6509C31.207 30.5277 31.307 30.4277 31.4302 30.4277H34.5935C34.7167 30.4277 34.8166 30.5277 34.8166 30.6509V33.0281C34.8166 33.1514 34.7167 33.2513 34.5935 33.2513Z" fill="url(#paint2_linear_4201:10165)"/>
<path d="M27.2269 30.7715C26.9916 30.7715 26.8008 30.9622 26.8008 31.1976V33.1689C26.8008 33.1963 26.8036 33.2229 26.8085 33.2488C26.8239 33.2505 26.8395 33.2515 26.8554 33.2515H39.1673C39.4026 33.2515 39.5934 33.0607 39.5934 32.8254V30.8541C39.5934 30.8267 39.5906 30.8 39.5856 30.7742C39.5703 30.7725 39.5547 30.7715 39.5388 30.7715H27.2269Z" fill="url(#paint3_linear_4201:10165)"/>
<path d="M39.1678 30.429H26.8558C26.6205 30.429 26.4297 30.2383 26.4297 30.0029V28.0316C26.4297 27.7962 26.6204 27.6055 26.8558 27.6055H39.1678C39.4031 27.6055 39.5939 27.7962 39.5939 28.0316V30.0029C39.5939 30.2382 39.4032 30.429 39.1678 30.429Z" fill="url(#paint4_linear_4201:10165)"/>
<path d="M37.6031 30.429H28.4169C28.2126 30.429 28.0469 30.2634 28.0469 30.059V27.9755C28.0469 27.7712 28.2125 27.6055 28.4169 27.6055H37.6031C37.8074 27.6055 37.9731 27.7711 37.9731 27.9755V30.059C37.9731 30.2634 37.8075 30.429 37.6031 30.429V30.429Z" fill="url(#paint5_linear_4201:10165)"/>
<path d="M34.5935 30.429H31.4302C31.307 30.429 31.207 30.3291 31.207 30.2059V27.8286C31.207 27.7054 31.307 27.6055 31.4302 27.6055H34.5935C34.7167 27.6055 34.8166 27.7054 34.8166 27.8286V30.2059C34.8166 30.3291 34.7167 30.429 34.5935 30.429Z" fill="url(#paint6_linear_4201:10165)"/>
<path d="M27.2269 27.9492C26.9916 27.9492 26.8008 28.14 26.8008 28.3753V30.3466C26.8008 30.374 26.8036 30.4006 26.8085 30.4266C26.8239 30.4283 26.8395 30.4292 26.8554 30.4292H39.1673C39.4026 30.4292 39.5934 30.2385 39.5934 30.0031V28.0318C39.5934 28.0044 39.5906 27.9778 39.5856 27.9519C39.5703 27.9502 39.5547 27.9492 39.5388 27.9492H27.2269Z" fill="url(#paint7_linear_4201:10165)"/>
<path d="M39.1678 27.6048H26.8558C26.6205 27.6048 26.4297 27.414 26.4297 27.1787V25.2074C26.4297 24.972 26.6204 24.7812 26.8558 24.7812H39.1678C39.4031 24.7812 39.5939 24.972 39.5939 25.2074V27.1787C39.5939 27.414 39.4032 27.6048 39.1678 27.6048Z" fill="url(#paint8_linear_4201:10165)"/>
<path d="M37.6031 27.6048H28.4169C28.2126 27.6048 28.0469 27.4391 28.0469 27.2347V25.1513C28.0469 24.947 28.2125 24.7812 28.4169 24.7812H37.6031C37.8074 24.7812 37.9731 24.9469 37.9731 25.1513V27.2347C37.9731 27.4391 37.8075 27.6048 37.6031 27.6048Z" fill="url(#paint9_linear_4201:10165)"/>
<path d="M34.5935 27.6048H31.4302C31.307 27.6048 31.207 27.5049 31.207 27.3816V25.0044C31.207 24.8812 31.307 24.7812 31.4302 24.7812H34.5935C34.7167 24.7812 34.8166 24.8812 34.8166 25.0044V27.3816C34.8166 27.5049 34.7167 27.6048 34.5935 27.6048Z" fill="url(#paint10_linear_4201:10165)"/>
<path d="M27.2269 25.125C26.9916 25.125 26.8008 25.3157 26.8008 25.5511V27.5224C26.8008 27.5498 26.8036 27.5765 26.8085 27.6023C26.8239 27.604 26.8395 27.605 26.8554 27.605H39.1673C39.4026 27.605 39.5934 27.4143 39.5934 27.1789V25.2076C39.5934 25.1802 39.5906 25.1535 39.5856 25.1277C39.5703 25.126 39.5547 25.125 39.5388 25.125H27.2269Z" fill="url(#paint11_linear_4201:10165)"/>
<path d="M39.1678 24.7825H26.8558C26.6205 24.7825 26.4297 24.5918 26.4297 24.3564V22.3851C26.4297 22.1497 26.6204 21.959 26.8558 21.959H39.1678C39.4031 21.959 39.5939 22.1497 39.5939 22.3851V24.3564C39.5939 24.5918 39.4032 24.7825 39.1678 24.7825Z" fill="url(#paint12_linear_4201:10165)"/>
<path d="M37.6031 24.7825H28.4169C28.2126 24.7825 28.0469 24.6169 28.0469 24.4125V22.329C28.0469 22.1247 28.2125 21.959 28.4169 21.959H37.6031C37.8074 21.959 37.9731 22.1246 37.9731 22.329V24.4126C37.9731 24.6169 37.8075 24.7825 37.6031 24.7825V24.7825Z" fill="url(#paint13_linear_4201:10165)"/>
<path d="M34.5935 24.7825H31.4302C31.307 24.7825 31.207 24.6826 31.207 24.5594V22.1821C31.207 22.0589 31.307 21.959 31.4302 21.959H34.5935C34.7167 21.959 34.8166 22.0589 34.8166 22.1821V24.5594C34.8166 24.6826 34.7167 24.7825 34.5935 24.7825Z" fill="url(#paint14_linear_4201:10165)"/>
<path d="M27.2269 22.3008C26.9916 22.3008 26.8008 22.4915 26.8008 22.7269V24.6982C26.8008 24.7256 26.8036 24.7522 26.8085 24.7781C26.8239 24.7798 26.8395 24.7808 26.8554 24.7808H39.1673C39.4026 24.7808 39.5934 24.59 39.5934 24.3547V22.3834C39.5934 22.356 39.5906 22.3294 39.5856 22.3034C39.5703 22.3017 39.5547 22.3008 39.5388 22.3008H27.2269Z" fill="url(#paint15_linear_4201:10165)"/>
<path d="M39.1678 21.9583H26.8558C26.6205 21.9583 26.4297 21.7676 26.4297 21.5322V19.5609C26.4297 19.3255 26.6204 19.1348 26.8558 19.1348H39.1678C39.4031 19.1348 39.5939 19.3255 39.5939 19.5609V21.5322C39.5939 21.7676 39.4032 21.9583 39.1678 21.9583Z" fill="url(#paint16_linear_4201:10165)"/>
<path d="M37.6031 21.9583H28.4169C28.2126 21.9583 28.0469 21.7927 28.0469 21.5883V19.5048C28.0469 19.3004 28.2125 19.1348 28.4169 19.1348H37.6031C37.8074 19.1348 37.9731 19.3004 37.9731 19.5048V21.5883C37.9731 21.7927 37.8075 21.9583 37.6031 21.9583Z" fill="url(#paint17_linear_4201:10165)"/>
<path d="M34.5935 21.9583H31.4302C31.307 21.9583 31.207 21.8584 31.207 21.7352V19.3579C31.207 19.2347 31.307 19.1348 31.4302 19.1348H34.5935C34.7167 19.1348 34.8166 19.2347 34.8166 19.3579V21.7352C34.8166 21.8585 34.7167 21.9583 34.5935 21.9583Z" fill="url(#paint18_linear_4201:10165)"/>
<path d="M27.2269 19.4785C26.9916 19.4785 26.8008 19.6693 26.8008 19.9046V21.8759C26.8008 21.9033 26.8036 21.93 26.8085 21.9558C26.8239 21.9575 26.8395 21.9585 26.8554 21.9585H39.1673C39.4026 21.9585 39.5934 21.7678 39.5934 21.5324V19.5611C39.5934 19.5337 39.5906 19.5071 39.5856 19.4812C39.5703 19.4795 39.5547 19.4785 39.5388 19.4785H27.2269Z" fill="url(#paint19_linear_4201:10165)"/>
<path d="M39.1678 19.1341H26.8558C26.6205 19.1341 26.4297 18.9433 26.4297 18.708V16.7367C26.4297 16.5013 26.6204 16.3105 26.8558 16.3105H39.1678C39.4031 16.3105 39.5939 16.5013 39.5939 16.7367V18.708C39.5939 18.9433 39.4032 19.1341 39.1678 19.1341Z" fill="url(#paint20_linear_4201:10165)"/>
<path d="M37.6031 19.1341H28.4169C28.2126 19.1341 28.0469 18.9684 28.0469 18.764V16.6806C28.0469 16.4763 28.2125 16.3105 28.4169 16.3105H37.6031C37.8074 16.3105 37.9731 16.4762 37.9731 16.6806V18.764C37.9731 18.9684 37.8075 19.1341 37.6031 19.1341Z" fill="url(#paint21_linear_4201:10165)"/>
<path d="M34.5935 19.1341H31.4302C31.307 19.1341 31.207 19.0342 31.207 18.9109V16.5337C31.207 16.4105 31.307 16.3105 31.4302 16.3105H34.5935C34.7167 16.3105 34.8166 16.4105 34.8166 16.5337V18.9109C34.8166 19.0342 34.7167 19.1341 34.5935 19.1341Z" fill="url(#paint22_linear_4201:10165)"/>
<path d="M27.2269 16.6543C26.9916 16.6543 26.8008 16.845 26.8008 17.0804V19.0517C26.8008 19.0791 26.8036 19.1057 26.8085 19.1316C26.8239 19.1333 26.8395 19.1343 26.8554 19.1343H39.1673C39.4026 19.1343 39.5934 18.9435 39.5934 18.7082V16.7369C39.5934 16.7095 39.5906 16.6829 39.5856 16.657C39.5703 16.6553 39.5547 16.6543 39.5388 16.6543H27.2269Z" fill="url(#paint23_linear_4201:10165)"/>
<path d="M39.1678 16.3099H26.8558C26.6205 16.3099 26.4297 16.1191 26.4297 15.8837V13.9124C26.4297 13.6771 26.6204 13.4863 26.8558 13.4863H39.1678C39.4031 13.4863 39.5939 13.6771 39.5939 13.9124V15.8837C39.5939 16.119 39.4032 16.3099 39.1678 16.3099V16.3099Z" fill="url(#paint24_linear_4201:10165)"/>
<path d="M37.6031 16.3099H28.4169C28.2126 16.3099 28.0469 16.1443 28.0469 15.9399V13.8564C28.0469 13.6521 28.2125 13.4863 28.4169 13.4863H37.6031C37.8074 13.4863 37.9731 13.652 37.9731 13.8564V15.9398C37.9731 16.1442 37.8075 16.3099 37.6031 16.3099Z" fill="url(#paint25_linear_4201:10165)"/>
<path d="M34.5935 16.3099H31.4302C31.307 16.3099 31.207 16.2099 31.207 16.0867V13.7095C31.207 13.5862 31.307 13.4863 31.4302 13.4863H34.5935C34.7167 13.4863 34.8166 13.5862 34.8166 13.7095V16.0867C34.8166 16.2099 34.7167 16.3099 34.5935 16.3099Z" fill="url(#paint26_linear_4201:10165)"/>
<path d="M27.2269 13.8301C26.9916 13.8301 26.8008 14.0208 26.8008 14.2562V16.2275C26.8008 16.2549 26.8036 16.2815 26.8085 16.3074C26.8239 16.3091 26.8395 16.3101 26.8554 16.3101H39.1673C39.4026 16.3101 39.5934 16.1193 39.5934 15.884V13.9127C39.5934 13.8853 39.5906 13.8586 39.5856 13.8327C39.5703 13.8311 39.5547 13.8301 39.5388 13.8301H27.2269Z" fill="url(#paint27_linear_4201:10165)"/>
<path d="M39.1678 13.4876H26.8558C26.6205 13.4876 26.4297 13.2968 26.4297 13.0615V11.0902C26.4297 10.8548 26.6204 10.6641 26.8558 10.6641H39.1678C39.4031 10.6641 39.5939 10.8548 39.5939 11.0902V13.0615C39.5939 13.2968 39.4032 13.4876 39.1678 13.4876V13.4876Z" fill="url(#paint28_linear_4201:10165)"/>
<path d="M37.6031 13.4876H28.4169C28.2126 13.4876 28.0469 13.3219 28.0469 13.1176V11.0341C28.0469 10.8298 28.2125 10.6641 28.4169 10.6641H37.6031C37.8074 10.6641 37.9731 10.8297 37.9731 11.0341V13.1176C37.9731 13.3219 37.8075 13.4876 37.6031 13.4876Z" fill="url(#paint29_linear_4201:10165)"/>
<path d="M34.5935 13.4876H31.4302C31.307 13.4876 31.207 13.3877 31.207 13.2645V10.8872C31.207 10.764 31.307 10.6641 31.4302 10.6641H34.5935C34.7167 10.6641 34.8166 10.764 34.8166 10.8872V13.2645C34.8166 13.3877 34.7167 13.4876 34.5935 13.4876Z" fill="url(#paint30_linear_4201:10165)"/>
<path d="M27.2269 11.0078C26.9916 11.0078 26.8008 11.1986 26.8008 11.4339V13.4052C26.8008 13.4326 26.8036 13.4592 26.8085 13.4851C26.8239 13.4868 26.8395 13.4878 26.8554 13.4878H39.1673C39.4026 13.4878 39.5934 13.2971 39.5934 13.0617V11.0904C39.5934 11.063 39.5906 11.0364 39.5856 11.0105C39.5703 11.0088 39.5547 11.0078 39.5388 11.0078H27.2269Z" fill="url(#paint31_linear_4201:10165)"/>
<path d="M32.7617 20.9929L31.6302 15.0592C30.7863 10.6334 26.9164 7.43164 22.4107 7.43164H18.1657C13.6601 7.43164 9.7902 10.6334 8.94628 15.0592L8.30479 18.4234C7.68831 21.6563 6.7029 24.8192 5.22918 27.762C4.79828 28.6224 4.572 29.6029 4.61443 30.6403C4.73702 33.6414 7.37835 36.2239 10.3815 36.2826C10.4035 36.283 10.4255 36.2833 10.4475 36.2836C11.81 36.2953 13.1218 36.8263 14.0773 37.7977C15.1453 38.8833 16.6307 39.5567 18.2741 39.5567C20.2686 39.5567 22.0309 38.5651 23.0963 37.0484C23.4393 36.56 24.0018 36.2825 24.5986 36.2837H24.6089C24.8653 36.2837 25.1173 36.2647 25.3635 36.2282C25.8278 36.1594 26.2975 36.2779 26.6808 36.549C27.7174 37.2822 29.001 37.6893 30.3828 37.6193C33.34 37.4697 35.7522 35.1025 35.9532 32.1483C36.0255 31.0854 35.8152 30.078 35.3903 29.1931C34.1431 26.596 33.3013 23.8229 32.7617 20.9929V20.9929Z" fill="url(#paint32_radial_4201:10165)"/>
<path d="M10.4995 36.2841C13.7525 36.2841 16.3896 33.647 16.3896 30.394C16.3896 27.141 13.7525 24.5039 10.4995 24.5039C7.24647 24.5039 4.60938 27.141 4.60938 30.394C4.60938 33.647 7.24647 36.2841 10.4995 36.2841Z" fill="url(#paint33_linear_4201:10165)"/>
<path d="M18.2729 39.5576C21.526 39.5576 24.1631 36.9205 24.1631 33.6675C24.1631 30.4144 21.526 27.7773 18.2729 27.7773C15.0199 27.7773 12.3828 30.4144 12.3828 33.6675C12.3828 36.9205 15.0199 39.5576 18.2729 39.5576Z" fill="url(#paint34_linear_4201:10165)"/>
<path d="M30.0776 37.6279C33.3306 37.6279 35.9677 34.9908 35.9677 31.7378C35.9677 28.4848 33.3306 25.8477 30.0776 25.8477C26.8246 25.8477 24.1875 28.4848 24.1875 31.7378C24.1875 34.9908 26.8246 37.6279 30.0776 37.6279Z" fill="url(#paint35_linear_4201:10165)"/>
<path d="M35.951 32.1501C36.0233 31.0872 35.813 30.0797 35.3881 29.1949C34.1409 26.5977 33.2992 23.8247 32.7596 20.9946L31.6281 15.0609C31.3219 13.455 30.6157 12.0116 29.6269 10.8224C27.9904 9.46735 25.8955 8.66602 23.6414 8.66602H19.3963C14.8907 8.66602 11.0207 11.8677 10.1768 16.2936L9.53532 19.6578C8.91884 22.8907 7.93343 26.0535 6.45971 28.9963C6.02881 29.8567 5.80253 30.8372 5.84488 31.8746C5.89312 33.0554 6.33241 34.1704 7.02904 35.0933C7.98771 35.8154 9.1532 36.2602 10.3793 36.2842C10.4014 36.2846 10.4233 36.2849 10.4453 36.2852C11.8078 36.2969 13.1197 36.8279 14.0752 37.7993C15.1432 38.8849 16.6287 39.5583 18.272 39.5583C20.2665 39.5583 22.0288 38.5667 23.0942 37.0499C23.4372 36.5616 23.9997 36.2841 24.5965 36.2853H24.6068C24.8632 36.2853 25.1152 36.2663 25.3614 36.2298C25.8257 36.161 26.2954 36.2795 26.6787 36.5506C27.7153 37.2838 28.9989 37.6909 30.3807 37.6209C33.3378 37.4714 35.7501 35.1042 35.951 32.1501V32.1501Z" fill="url(#paint36_linear_4201:10165)"/>
<path d="M23.7072 14.3662C23.2807 14.2342 22.8756 14.1393 22.4918 14.0807C22.3067 14.0524 22.1197 14.0295 21.9313 14.0114C21.9297 14.0106 21.9282 14.0097 21.9267 14.0088L21.0633 13.1146C20.8927 13.0033 20.7078 12.9473 20.5089 12.9473C20.2813 12.9473 20.0894 13.0003 19.9332 13.1055C19.7767 13.2111 19.6987 13.3364 19.6987 13.481V14.0346C18.4621 14.2085 17.4421 14.6653 16.6392 15.4045C15.8359 16.1437 15.4345 17.1582 15.4345 18.4481C15.4345 18.9742 15.5269 19.4539 15.7116 19.8873C15.8963 20.3211 16.1095 20.6762 16.3514 20.9534L19.6988 24.3038V26.2943C19.1444 26.195 18.5401 25.9142 17.8865 25.4521C17.2325 24.9904 16.7705 24.7592 16.5006 24.7592C16.1168 24.7592 15.7791 24.9584 15.4878 25.3562C15.1964 25.7543 15.0508 26.1524 15.0508 26.5502C15.0508 27.0687 15.3051 27.5476 15.813 27.9872L24.1601 36.3343C24.3013 36.3013 24.4473 36.2843 24.5956 36.2846H24.6059C24.8623 36.2846 25.1142 36.2656 25.3604 36.2291C25.8247 36.1603 26.2945 36.2788 26.6778 36.5499C27.7144 37.2831 28.998 37.6902 30.3798 37.6202C33.337 37.4706 35.7492 35.1033 35.9502 32.1492C36.0225 31.0863 35.8122 30.0789 35.3872 29.194C34.5192 27.3865 33.8481 25.4936 33.338 23.5557L24.7412 14.9592C24.478 14.6957 24.1336 14.4981 23.7072 14.3662V14.3662Z" fill="url(#paint37_linear_4201:10165)"/>
<path d="M25.253 23.075C25.0749 22.6202 24.8618 22.2433 24.6133 21.9449C24.3643 21.6464 24.0339 21.3622 23.6218 21.0921C23.2094 20.8222 22.84 20.6161 22.5131 20.4738C22.186 20.3318 21.7882 20.1683 21.3192 19.9833V16.8704C21.8308 16.9131 22.3246 17.0553 22.801 17.2968C23.2771 17.5387 23.6145 17.6593 23.8138 17.6593C24.2258 17.6593 24.5494 17.4571 24.7839 17.0527C25.0184 16.6482 25.1356 16.2578 25.1356 15.882C25.1356 15.5306 25.0041 15.2231 24.7412 14.9592C24.478 14.6957 24.1336 14.4982 23.7072 14.3662C23.2807 14.2342 22.8756 14.1393 22.4918 14.0807C22.108 14.022 21.7169 13.9854 21.3192 13.9707V13.4786C21.3192 13.3473 21.2338 13.2261 21.0633 13.1145C20.8927 13.0032 20.7078 12.9473 20.5089 12.9473C20.2813 12.9473 20.0894 13.0003 19.9332 13.1055C19.7767 13.2111 19.6987 13.3364 19.6987 13.481V14.0346C18.4621 14.2085 17.4421 14.6653 16.6392 15.4045C15.8359 16.1437 15.4345 17.1582 15.4345 18.4481C15.4345 18.9742 15.5268 19.4539 15.7116 19.8873C15.8963 20.3211 16.1095 20.6762 16.3514 20.9534C16.5929 21.2306 16.9341 21.5008 17.3748 21.7636C17.8152 22.0268 18.1851 22.222 18.4835 22.3499C18.782 22.4778 19.1871 22.6414 19.6988 22.8403V26.2943C19.1444 26.195 18.5401 25.9142 17.8865 25.4521C17.2325 24.9904 16.7705 24.7592 16.5006 24.7592C16.1168 24.7592 15.7791 24.9584 15.4878 25.3562C15.1964 25.7543 15.0508 26.1524 15.0508 26.5502C15.0508 27.2469 15.5092 27.8721 16.426 28.4266C17.3429 28.9809 18.4335 29.2794 19.6988 29.322V29.855C19.6988 30.0113 19.7768 30.1462 19.9333 30.2601C20.0895 30.3737 20.2814 30.4307 20.509 30.4307C20.7078 30.4307 20.8928 30.3701 21.0633 30.2495C21.234 30.1285 21.3192 29.9969 21.3192 29.855V29.2367C22.5985 29.0235 23.6182 28.5191 24.3788 27.7229C25.1391 26.927 25.5195 25.8822 25.5195 24.5886C25.5194 24.0343 25.4305 23.5299 25.253 23.075V23.075ZM19.912 19.4716C19.0022 19.0878 18.5473 18.6401 18.5473 18.1284C18.5473 17.5174 19.0021 17.1193 19.912 16.9343V19.4716ZM21.1059 26.2731V23.4161C21.9727 23.8284 22.4065 24.3328 22.4065 24.9299C22.4065 25.6264 21.9727 26.0742 21.1059 26.2731V26.2731Z" fill="url(#paint38_linear_4201:10165)"/>
<path d="M23.1779 7.43269H17.3919L14.7596 2.38641C14.371 1.64147 14.8147 0.733079 15.6411 0.581549L17.365 0.265471C19.2955 -0.0884902 21.2744 -0.0884902 23.2049 0.265471L24.9287 0.581549C25.7551 0.733079 26.1988 1.64139 25.8102 2.38641L23.1779 7.43269Z" fill="url(#paint39_linear_4201:10165)"/>
<path d="M21.2495 7.43269H19.3252L18.4497 2.38641C18.3205 1.64147 18.4681 0.733079 18.7429 0.581549L19.3162 0.265471C19.9583 -0.0884902 20.6164 -0.0884902 21.2585 0.265471L21.8318 0.581549C22.1067 0.733079 22.2543 1.64139 22.125 2.38641L21.2495 7.43269Z" fill="url(#paint40_linear_4201:10165)"/>
<path d="M25.727 1.08914C25.8398 1.24961 25.783 1.47322 25.608 1.56192C24.7871 1.97941 23.8163 1.97941 22.9955 1.56192L22.2698 1.19345C21.4489 0.775961 20.4781 0.775961 19.6572 1.19345L18.9324 1.56192C18.1115 1.97941 17.1407 1.97941 16.3198 1.56192L15.5607 1.1758C15.2947 1.04051 15.3443 0.638235 15.6375 0.583177C15.64 0.582706 15.6425 0.582235 15.645 0.581765L17.3688 0.265059C19.299 -0.088353 21.2782 -0.088353 23.2085 0.265059L24.9323 0.581765C25.2727 0.643804 25.5478 0.834235 25.727 1.08914Z" fill="url(#paint41_linear_4201:10165)"/>
<path d="M25.83 1.79669C25.8688 1.70265 25.8968 1.60618 25.9175 1.50892C25.8041 1.05606 25.4411 0.674961 24.9318 0.581549L23.208 0.265471C21.2774 -0.0884902 19.2986 -0.0884902 17.3681 0.265471L16.0823 0.501235C15.9212 0.887196 15.9007 1.36594 16.0783 1.79669L18.4012 7.43269H23.181L24.7349 4.45378L25.83 1.79669Z" fill="url(#paint42_linear_4201:10165)"/>
<path d="M20.287 7.99864C19.0328 7.99864 17.8456 7.91762 16.8728 7.7679C16.5524 7.71857 16.3375 7.41315 16.4021 7.09551C16.4622 6.80014 16.7428 6.60351 17.0408 6.64916C17.9545 6.78923 19.1039 6.86766 20.287 6.86766C21.47 6.86766 22.6194 6.78923 23.5332 6.64916C23.8311 6.60351 24.1118 6.80006 24.1718 7.09551C24.2365 7.41315 24.0216 7.71864 23.7012 7.7679C22.7283 7.91762 21.5412 7.99864 20.287 7.99864V7.99864Z" fill="url(#paint43_linear_4201:10165)"/>
<path d="M13.5599 23.3855C13.515 23.1983 13.3482 23.0586 13.1473 23.0586H11.5844H8.57293H7.13387C6.61747 24.6713 5.98861 26.2464 5.22924 27.7627C4.79834 28.6231 4.57206 29.6036 4.61441 30.6409C4.737 33.6421 7.37842 36.2246 10.3816 36.2833C10.4036 36.2837 10.4256 36.284 10.4475 36.2842C11.81 36.296 13.1219 36.827 14.0775 37.7984C15.1454 38.884 16.6309 39.5573 18.2743 39.5573C20.2687 39.5573 22.031 38.5658 23.0965 37.049C23.4394 36.5607 24.0019 36.2832 24.5987 36.2844H24.6091C24.8655 36.2844 25.1174 36.2654 25.3636 36.2289C25.8279 36.1601 26.2976 36.2786 26.6809 36.5497C26.7249 36.5808 26.7699 36.6105 26.8149 36.6404L13.5599 23.3855Z" fill="url(#paint44_linear_4201:10165)"/>
<path d="M13.1444 39.9993H0.832368C0.597074 39.9993 0.40625 39.8086 0.40625 39.5732V37.6019C0.40625 37.3665 0.596995 37.1758 0.832368 37.1758H13.1444C13.3797 37.1758 13.5705 37.3665 13.5705 37.6019V39.5732C13.5705 39.8086 13.3797 39.9993 13.1444 39.9993Z" fill="url(#paint45_linear_4201:10165)"/>
<path d="M11.5836 39.9993H2.39738C2.19299 39.9993 2.02734 39.8337 2.02734 39.6293V37.5458C2.02734 37.3415 2.19299 37.1758 2.39738 37.1758H11.5836C11.7879 37.1758 11.9536 37.3414 11.9536 37.5458V39.6293C11.9536 39.8337 11.788 39.9993 11.5836 39.9993Z" fill="url(#paint46_linear_4201:10165)"/>
<path d="M8.57003 39.9993H5.40673C5.28352 39.9993 5.18359 39.8994 5.18359 39.7762V37.3989C5.18359 37.2757 5.28352 37.1758 5.40673 37.1758H8.57003C8.69324 37.1758 8.79316 37.2757 8.79316 37.3989V39.7762C8.79316 39.8994 8.69324 39.9993 8.57003 39.9993Z" fill="url(#paint47_linear_4201:10165)"/>
<path d="M1.20346 37.5195C0.968089 37.5195 0.777344 37.7103 0.777344 37.9456V39.9169C0.777344 39.9443 0.780167 39.971 0.785108 39.9969C0.800481 39.9985 0.816089 39.9995 0.831932 39.9995H13.1439C13.3793 39.9995 13.57 39.8088 13.57 39.5734V37.6021C13.57 37.5747 13.5672 37.5481 13.5623 37.5222C13.5469 37.5206 13.5313 37.5195 13.5155 37.5195H1.20346Z" fill="url(#paint48_linear_4201:10165)"/>
<path d="M13.1444 37.177H0.832368C0.597074 37.177 0.40625 36.9863 0.40625 36.7509V34.7796C0.40625 34.5443 0.596995 34.3535 0.832368 34.3535H13.1444C13.3797 34.3535 13.5705 34.5443 13.5705 34.7796V36.7509C13.5705 36.9863 13.3797 37.177 13.1444 37.177Z" fill="url(#paint49_linear_4201:10165)"/>
<path d="M11.5836 37.1771H2.39738C2.19299 37.1771 2.02734 37.0115 2.02734 36.8071V34.7236C2.02734 34.5192 2.19299 34.3535 2.39738 34.3535H11.5836C11.7879 34.3535 11.9536 34.5192 11.9536 34.7236V36.8071C11.9536 37.0115 11.788 37.1771 11.5836 37.1771Z" fill="url(#paint50_linear_4201:10165)"/>
<path d="M8.57003 37.177H5.40673C5.28352 37.177 5.18359 37.0771 5.18359 36.9539V34.5767C5.18359 34.4534 5.28352 34.3535 5.40673 34.3535H8.57003C8.69324 34.3535 8.79316 34.4534 8.79316 34.5767V36.9539C8.79316 37.0771 8.69324 37.177 8.57003 37.177Z" fill="url(#paint51_linear_4201:10165)"/>
<path d="M1.20346 34.6973C0.968089 34.6973 0.777344 34.888 0.777344 35.1234V37.0947C0.777344 37.1221 0.780167 37.1486 0.785108 37.1746C0.800481 37.1763 0.816089 37.1773 0.831932 37.1773H13.1439C13.3793 37.1773 13.57 36.9865 13.57 36.7512V34.7799C13.57 34.7525 13.5672 34.7258 13.5623 34.6999C13.5469 34.6982 13.5313 34.6973 13.5155 34.6973H1.20346Z" fill="url(#paint52_linear_4201:10165)"/>
<path d="M13.1444 34.3528H0.832368C0.597074 34.3528 0.40625 34.1621 0.40625 33.9267V31.9554C0.40625 31.7201 0.596995 31.5293 0.832368 31.5293H13.1444C13.3797 31.5293 13.5705 31.72 13.5705 31.9554V33.9267C13.5705 34.1621 13.3797 34.3528 13.1444 34.3528Z" fill="url(#paint53_linear_4201:10165)"/>
<path d="M11.5836 34.3528H2.39738C2.19299 34.3528 2.02734 34.1872 2.02734 33.9828V31.8993C2.02734 31.6949 2.19299 31.5293 2.39738 31.5293H11.5836C11.7879 31.5293 11.9536 31.6949 11.9536 31.8993V33.9828C11.9536 34.1872 11.788 34.3528 11.5836 34.3528Z" fill="url(#paint54_linear_4201:10165)"/>
<path d="M8.57003 34.3528H5.40673C5.28352 34.3528 5.18359 34.2529 5.18359 34.1297V31.7524C5.18359 31.6292 5.28352 31.5293 5.40673 31.5293H8.57003C8.69324 31.5293 8.79316 31.6292 8.79316 31.7524V34.1297C8.79316 34.253 8.69324 34.3528 8.57003 34.3528Z" fill="url(#paint55_linear_4201:10165)"/>
<path d="M1.20346 31.873C0.968089 31.873 0.777344 32.0638 0.777344 32.2992V34.2705C0.777344 34.2978 0.780167 34.3245 0.785108 34.3504C0.800481 34.352 0.816089 34.353 0.831932 34.353H13.1439C13.3793 34.353 13.57 34.1623 13.57 33.9269V31.9556C13.57 31.9283 13.5672 31.9017 13.5623 31.8757C13.5469 31.8741 13.5313 31.873 13.5155 31.873H1.20346Z" fill="url(#paint56_linear_4201:10165)"/>
<path d="M13.1444 31.5286H0.832368C0.597074 31.5286 0.40625 31.3379 0.40625 31.1025V29.1312C0.40625 28.8958 0.596995 28.7051 0.832368 28.7051H13.1444C13.3797 28.7051 13.5705 28.8958 13.5705 29.1312V31.1025C13.5705 31.3379 13.3797 31.5286 13.1444 31.5286Z" fill="url(#paint57_linear_4201:10165)"/>
<path d="M11.5836 31.5287H2.39738C2.19299 31.5287 2.02734 31.363 2.02734 31.1587V29.0751C2.02734 28.8708 2.19299 28.7051 2.39738 28.7051H11.5836C11.7879 28.7051 11.9536 28.8707 11.9536 29.0751V31.1587C11.9536 31.363 11.788 31.5287 11.5836 31.5287Z" fill="url(#paint58_linear_4201:10165)"/>
<path d="M8.57003 31.5286H5.40673C5.28352 31.5286 5.18359 31.4287 5.18359 31.3055V28.9282C5.18359 28.805 5.28352 28.7051 5.40673 28.7051H8.57003C8.69324 28.7051 8.79316 28.805 8.79316 28.9282V31.3055C8.79316 31.4288 8.69324 31.5286 8.57003 31.5286Z" fill="url(#paint59_linear_4201:10165)"/>
<path d="M1.20346 29.0488C0.968089 29.0488 0.777344 29.2396 0.777344 29.4749V31.4462C0.777344 31.4736 0.780167 31.5002 0.785108 31.5262C0.800481 31.5279 0.816089 31.5288 0.831932 31.5288H13.1439C13.3793 31.5288 13.57 31.3381 13.57 31.1027V29.1314C13.57 29.104 13.5672 29.0775 13.5623 29.0515C13.5469 29.0498 13.5313 29.0488 13.5155 29.0488H1.20346Z" fill="url(#paint60_linear_4201:10165)"/>
<path d="M13.1444 28.7063H0.832368C0.597074 28.7063 0.40625 28.5156 0.40625 28.2802V26.3089C0.40625 26.0736 0.596995 25.8828 0.832368 25.8828H13.1444C13.3797 25.8828 13.5705 26.0736 13.5705 26.3089V28.2802C13.5705 28.5155 13.3797 28.7063 13.1444 28.7063Z" fill="url(#paint61_linear_4201:10165)"/>
<path d="M11.5836 28.7063H2.39738C2.19299 28.7063 2.02734 28.5407 2.02734 28.3363V26.2529C2.02734 26.0485 2.19299 25.8828 2.39738 25.8828H11.5836C11.7879 25.8828 11.9536 26.0485 11.9536 26.2529V28.3363C11.9536 28.5406 11.788 28.7063 11.5836 28.7063Z" fill="url(#paint62_linear_4201:10165)"/>
<path d="M8.57003 28.7063H5.40673C5.28352 28.7063 5.18359 28.6064 5.18359 28.4832V26.1059C5.18359 25.9827 5.28352 25.8828 5.40673 25.8828H8.57003C8.69324 25.8828 8.79316 25.9827 8.79316 26.1059V28.4832C8.79316 28.6064 8.69324 28.7063 8.57003 28.7063Z" fill="url(#paint63_linear_4201:10165)"/>
<path d="M1.20346 26.2266C0.968089 26.2266 0.777344 26.4173 0.777344 26.6527V28.624C0.777344 28.6514 0.780167 28.678 0.785108 28.7039C0.800481 28.7055 0.816089 28.7066 0.831932 28.7066H13.1439C13.3793 28.7066 13.57 28.5158 13.57 28.2804V26.3092C13.57 26.2818 13.5672 26.2552 13.5623 26.2292C13.5469 26.2276 13.5313 26.2266 13.5155 26.2266H1.20346Z" fill="url(#paint64_linear_4201:10165)"/>
<path d="M13.1444 25.8821H0.832368C0.597074 25.8821 0.40625 25.6914 0.40625 25.456V23.4847C0.40625 23.2493 0.596995 23.0586 0.832368 23.0586H13.1444C13.3797 23.0586 13.5705 23.2493 13.5705 23.4847V25.456C13.5705 25.6913 13.3797 25.8821 13.1444 25.8821Z" fill="url(#paint65_linear_4201:10165)"/>
<path d="M11.5836 25.8822H2.39738C2.19299 25.8822 2.02734 25.7166 2.02734 25.5122V23.4286C2.02734 23.2243 2.19299 23.0586 2.39738 23.0586H11.5836C11.7879 23.0586 11.9536 23.2242 11.9536 23.4286V25.5122C11.9536 25.7166 11.788 25.8822 11.5836 25.8822Z" fill="url(#paint66_linear_4201:10165)"/>
<path d="M8.57003 25.8821H5.40673C5.28352 25.8821 5.18359 25.7822 5.18359 25.659V23.2817C5.18359 23.1585 5.28352 23.0586 5.40673 23.0586H8.57003C8.69324 23.0586 8.79316 23.1585 8.79316 23.2817V25.659C8.79316 25.7822 8.69324 25.8821 8.57003 25.8821Z" fill="url(#paint67_linear_4201:10165)"/>
<path d="M1.20346 23.4023C0.968089 23.4023 0.777344 23.5931 0.777344 23.8285V25.7998C0.777344 25.8271 0.780167 25.8537 0.785108 25.8797C0.800481 25.8813 0.816089 25.8823 0.831932 25.8823H13.1439C13.3793 25.8823 13.57 25.6916 13.57 25.4562V23.4849C13.57 23.4576 13.5672 23.431 13.5623 23.405C13.5469 23.4034 13.5313 23.4023 13.5155 23.4023H1.20346Z" fill="url(#paint68_linear_4201:10165)"/>
<path d="M36.2303 39.9993H23.9183C23.6829 39.9993 23.4922 39.8086 23.4922 39.5732V37.6019C23.4922 37.3665 23.6829 37.1758 23.9183 37.1758H36.2303C36.4656 37.1758 36.6564 37.3665 36.6564 37.6019V39.5732C36.6564 39.8086 36.4656 39.9993 36.2303 39.9993Z" fill="url(#paint69_linear_4201:10165)"/>
<path d="M34.6695 39.9993H25.4833C25.279 39.9993 25.1133 39.8337 25.1133 39.6293V37.5458C25.1133 37.3415 25.2789 37.1758 25.4833 37.1758H34.6695C34.8738 37.1758 35.0396 37.3414 35.0396 37.5458V39.6293C35.0396 39.8337 34.8738 39.9993 34.6695 39.9993V39.9993Z" fill="url(#paint70_linear_4201:10165)"/>
<path d="M31.656 39.9993H28.4927C28.3695 39.9993 28.2695 39.8994 28.2695 39.7762V37.3989C28.2695 37.2757 28.3695 37.1758 28.4927 37.1758H31.656C31.7792 37.1758 31.8791 37.2757 31.8791 37.3989V39.7762C31.8791 39.8994 31.7792 39.9993 31.656 39.9993Z" fill="url(#paint71_linear_4201:10165)"/>
<path d="M24.2894 37.5195C24.0541 37.5195 23.8633 37.7103 23.8633 37.9456V39.9169C23.8633 39.9443 23.8661 39.971 23.871 39.9969C23.8864 39.9985 23.902 39.9995 23.9179 39.9995H36.2299C36.4652 39.9995 36.656 39.8088 36.656 39.5734V37.6021C36.656 37.5747 36.6532 37.5481 36.6482 37.5222C36.6329 37.5206 36.6172 37.5195 36.6014 37.5195H24.2894Z" fill="url(#paint72_linear_4201:10165)"/>
<path d="M36.2303 37.177H23.9183C23.6829 37.177 23.4922 36.9863 23.4922 36.7509V34.7796C23.4922 34.5443 23.6829 34.3535 23.9183 34.3535H36.2303C36.4656 34.3535 36.6564 34.5443 36.6564 34.7796V36.7509C36.6564 36.9863 36.4656 37.177 36.2303 37.177Z" fill="url(#paint73_linear_4201:10165)"/>
<path d="M34.6695 37.1771H25.4833C25.279 37.1771 25.1133 37.0115 25.1133 36.8071V34.7236C25.1133 34.5192 25.2789 34.3535 25.4833 34.3535H34.6695C34.8738 34.3535 35.0396 34.5192 35.0396 34.7236V36.8071C35.0396 37.0115 34.8738 37.1771 34.6695 37.1771V37.1771Z" fill="url(#paint74_linear_4201:10165)"/>
<path d="M31.656 37.177H28.4927C28.3695 37.177 28.2695 37.0771 28.2695 36.9539V34.5767C28.2695 34.4534 28.3695 34.3535 28.4927 34.3535H31.656C31.7792 34.3535 31.8791 34.4534 31.8791 34.5767V36.9539C31.8791 37.0771 31.7792 37.177 31.656 37.177Z" fill="url(#paint75_linear_4201:10165)"/>
<path d="M24.2894 34.6973C24.0541 34.6973 23.8633 34.888 23.8633 35.1234V37.0947C23.8633 37.1221 23.8661 37.1486 23.871 37.1746C23.8864 37.1763 23.902 37.1773 23.9179 37.1773H36.2299C36.4652 37.1773 36.656 36.9865 36.656 36.7512V34.7799C36.656 34.7525 36.6532 34.7258 36.6482 34.6999C36.6329 34.6982 36.6172 34.6973 36.6014 34.6973H24.2894Z" fill="url(#paint76_linear_4201:10165)"/>
<path d="M7.29888 16.4456C6.12131 17.2129 5.1166 18.2237 4.35574 19.4062C4.1846 19.6721 3.78978 19.6714 3.61966 19.4048C2.86311 18.2197 1.86209 17.2052 0.687345 16.4336C0.426561 16.2623 0.427267 15.8729 0.688678 15.7025C1.86625 14.9351 2.87095 13.9244 3.63182 12.7419C3.80287 12.4761 4.19778 12.4768 4.36789 12.7433C5.12444 13.9285 6.12546 14.9429 7.30029 15.7146C7.56099 15.8858 7.56029 16.2753 7.29888 16.4456V16.4456Z" fill="url(#paint77_linear_4201:10165)"/>
<path d="M11.9892 5.76375C11.1565 6.30642 10.446 7.02116 9.90798 7.8574C9.78696 8.0454 9.50774 8.04493 9.38743 7.85646C8.85245 7.01834 8.14453 6.30101 7.31378 5.75528C7.12939 5.63418 7.12986 5.35873 7.31472 5.23826C8.14743 4.69559 8.85794 3.98085 9.39598 3.14461C9.517 2.95661 9.79621 2.95708 9.91653 3.14555C10.4515 3.98367 11.1594 4.70101 11.9902 5.24673C12.1746 5.36791 12.1741 5.64328 11.9892 5.76375Z" fill="url(#paint78_linear_4201:10165)"/>
<path d="M34.6064 7.69539C33.7737 8.23806 33.0632 8.9528 32.5252 9.78904C32.4041 9.97704 32.1249 9.97657 32.0046 9.7881C31.4696 8.94998 30.7617 8.23265 29.931 7.68692C29.7466 7.56582 29.747 7.29037 29.9319 7.1699C30.7646 6.62723 31.4751 5.91249 32.0132 5.07625C32.1342 4.88825 32.4134 4.88872 32.5337 5.07719C33.0688 5.91531 33.7766 6.63265 34.6074 7.17837C34.7918 7.29955 34.7913 7.57492 34.6064 7.69539Z" fill="url(#paint79_linear_4201:10165)"/>
</g>
<defs>
<linearGradient id="paint0_linear_4201:10165" x1="33.0118" y1="30.4859" x2="33.0118" y2="34.1467" gradientUnits="userSpaceOnUse">
<stop stop-color="#E4F2FF"/>
<stop offset="1" stop-color="#B2CBFF"/>
</linearGradient>
<linearGradient id="paint1_linear_4201:10165" x1="33.01" y1="30.539" x2="33.01" y2="36.6957" gradientUnits="userSpaceOnUse">
<stop stop-color="#3F3CED" stop-opacity="0"/>
<stop offset="0.2796" stop-color="#3C3DE4" stop-opacity="0.28"/>
<stop offset="0.7305" stop-color="#3541CC" stop-opacity="0.731"/>
<stop offset="1" stop-color="#2F43BB"/>
</linearGradient>
<linearGradient id="paint2_linear_4201:10165" x1="33.0118" y1="30.539" x2="33.0118" y2="36.6957" gradientUnits="userSpaceOnUse">
<stop stop-color="#3F3CED" stop-opacity="0"/>
<stop offset="0.2796" stop-color="#3C3DE4" stop-opacity="0.28"/>
<stop offset="0.7305" stop-color="#3541CC" stop-opacity="0.731"/>
<stop offset="1" stop-color="#2F43BB"/>
</linearGradient>
<linearGradient id="paint3_linear_4201:10165" x1="32.9962" y1="31.5255" x2="31.5364" y2="27.9956" gradientUnits="userSpaceOnUse">
<stop stop-color="white" stop-opacity="0"/>
<stop offset="1" stop-color="white"/>
</linearGradient>
<linearGradient id="paint4_linear_4201:10165" x1="33.0118" y1="27.6637" x2="33.0118" y2="31.3245" gradientUnits="userSpaceOnUse">
<stop stop-color="#E4F2FF"/>
<stop offset="1" stop-color="#B2CBFF"/>
</linearGradient>
<linearGradient id="paint5_linear_4201:10165" x1="33.01" y1="27.7168" x2="33.01" y2="33.8734" gradientUnits="userSpaceOnUse">
<stop stop-color="#3F3CED" stop-opacity="0"/>
<stop offset="0.2796" stop-color="#3C3DE4" stop-opacity="0.28"/>
<stop offset="0.7305" stop-color="#3541CC" stop-opacity="0.731"/>
<stop offset="1" stop-color="#2F43BB"/>
</linearGradient>
<linearGradient id="paint6_linear_4201:10165" x1="33.0118" y1="27.7168" x2="33.0118" y2="33.8734" gradientUnits="userSpaceOnUse">
<stop stop-color="#3F3CED" stop-opacity="0"/>
<stop offset="0.2796" stop-color="#3C3DE4" stop-opacity="0.28"/>
<stop offset="0.7305" stop-color="#3541CC" stop-opacity="0.731"/>
<stop offset="1" stop-color="#2F43BB"/>
</linearGradient>
<linearGradient id="paint7_linear_4201:10165" x1="32.9962" y1="28.7033" x2="31.5364" y2="25.1733" gradientUnits="userSpaceOnUse">
<stop stop-color="white" stop-opacity="0"/>
<stop offset="1" stop-color="white"/>
</linearGradient>
<linearGradient id="paint8_linear_4201:10165" x1="33.0118" y1="24.8394" x2="33.0118" y2="28.5002" gradientUnits="userSpaceOnUse">
<stop stop-color="#E4F2FF"/>
<stop offset="1" stop-color="#B2CBFF"/>
</linearGradient>
<linearGradient id="paint9_linear_4201:10165" x1="33.01" y1="24.8925" x2="33.01" y2="31.0492" gradientUnits="userSpaceOnUse">
<stop stop-color="#3F3CED" stop-opacity="0"/>
<stop offset="0.2796" stop-color="#3C3DE4" stop-opacity="0.28"/>
<stop offset="0.7305" stop-color="#3541CC" stop-opacity="0.731"/>
<stop offset="1" stop-color="#2F43BB"/>
</linearGradient>
<linearGradient id="paint10_linear_4201:10165" x1="33.0118" y1="24.8925" x2="33.0118" y2="31.0492" gradientUnits="userSpaceOnUse">
<stop stop-color="#3F3CED" stop-opacity="0"/>
<stop offset="0.2796" stop-color="#3C3DE4" stop-opacity="0.28"/>
<stop offset="0.7305" stop-color="#3541CC" stop-opacity="0.731"/>
<stop offset="1" stop-color="#2F43BB"/>
</linearGradient>
<linearGradient id="paint11_linear_4201:10165" x1="32.9962" y1="25.879" x2="31.5364" y2="22.3491" gradientUnits="userSpaceOnUse">
<stop stop-color="white" stop-opacity="0"/>
<stop offset="1" stop-color="white"/>
</linearGradient>
<linearGradient id="paint12_linear_4201:10165" x1="33.0118" y1="22.0172" x2="33.0118" y2="25.678" gradientUnits="userSpaceOnUse">
<stop stop-color="#E4F2FF"/>
<stop offset="1" stop-color="#B2CBFF"/>
</linearGradient>
<linearGradient id="paint13_linear_4201:10165" x1="33.01" y1="22.0703" x2="33.01" y2="28.2269" gradientUnits="userSpaceOnUse">
<stop stop-color="#3F3CED" stop-opacity="0"/>
<stop offset="0.2796" stop-color="#3C3DE4" stop-opacity="0.28"/>
<stop offset="0.7305" stop-color="#3541CC" stop-opacity="0.731"/>
<stop offset="1" stop-color="#2F43BB"/>
</linearGradient>
<linearGradient id="paint14_linear_4201:10165" x1="33.0118" y1="22.0703" x2="33.0118" y2="28.2269" gradientUnits="userSpaceOnUse">
<stop stop-color="#3F3CED" stop-opacity="0"/>
<stop offset="0.2796" stop-color="#3C3DE4" stop-opacity="0.28"/>
<stop offset="0.7305" stop-color="#3541CC" stop-opacity="0.731"/>
<stop offset="1" stop-color="#2F43BB"/>
</linearGradient>
<linearGradient id="paint15_linear_4201:10165" x1="32.9962" y1="23.0548" x2="31.5364" y2="19.5249" gradientUnits="userSpaceOnUse">
<stop stop-color="white" stop-opacity="0"/>
<stop offset="1" stop-color="white"/>
</linearGradient>
<linearGradient id="paint16_linear_4201:10165" x1="33.0118" y1="19.193" x2="33.0118" y2="22.8538" gradientUnits="userSpaceOnUse">
<stop stop-color="#E4F2FF"/>
<stop offset="1" stop-color="#B2CBFF"/>
</linearGradient>
<linearGradient id="paint17_linear_4201:10165" x1="33.01" y1="19.2461" x2="33.01" y2="25.4027" gradientUnits="userSpaceOnUse">
<stop stop-color="#3F3CED" stop-opacity="0"/>
<stop offset="0.2796" stop-color="#3C3DE4" stop-opacity="0.28"/>
<stop offset="0.7305" stop-color="#3541CC" stop-opacity="0.731"/>
<stop offset="1" stop-color="#2F43BB"/>
</linearGradient>
<linearGradient id="paint18_linear_4201:10165" x1="33.0118" y1="19.2461" x2="33.0118" y2="25.4027" gradientUnits="userSpaceOnUse">
<stop stop-color="#3F3CED" stop-opacity="0"/>
<stop offset="0.2796" stop-color="#3C3DE4" stop-opacity="0.28"/>
<stop offset="0.7305" stop-color="#3541CC" stop-opacity="0.731"/>
<stop offset="1" stop-color="#2F43BB"/>
</linearGradient>
<linearGradient id="paint19_linear_4201:10165" x1="32.9962" y1="20.2326" x2="31.5364" y2="16.7027" gradientUnits="userSpaceOnUse">
<stop stop-color="white" stop-opacity="0"/>
<stop offset="1" stop-color="white"/>
</linearGradient>
<linearGradient id="paint20_linear_4201:10165" x1="33.0118" y1="16.3687" x2="33.0118" y2="20.0296" gradientUnits="userSpaceOnUse">
<stop stop-color="#E4F2FF"/>
<stop offset="1" stop-color="#B2CBFF"/>
</linearGradient>
<linearGradient id="paint21_linear_4201:10165" x1="33.01" y1="16.4218" x2="33.01" y2="22.5785" gradientUnits="userSpaceOnUse">
<stop stop-color="#3F3CED" stop-opacity="0"/>
<stop offset="0.2796" stop-color="#3C3DE4" stop-opacity="0.28"/>
<stop offset="0.7305" stop-color="#3541CC" stop-opacity="0.731"/>
<stop offset="1" stop-color="#2F43BB"/>
</linearGradient>
<linearGradient id="paint22_linear_4201:10165" x1="33.0118" y1="16.4218" x2="33.0118" y2="22.5785" gradientUnits="userSpaceOnUse">
<stop stop-color="#3F3CED" stop-opacity="0"/>
<stop offset="0.2796" stop-color="#3C3DE4" stop-opacity="0.28"/>
<stop offset="0.7305" stop-color="#3541CC" stop-opacity="0.731"/>
<stop offset="1" stop-color="#2F43BB"/>
</linearGradient>
<linearGradient id="paint23_linear_4201:10165" x1="32.9962" y1="17.4083" x2="31.5364" y2="13.8785" gradientUnits="userSpaceOnUse">
<stop stop-color="white" stop-opacity="0"/>
<stop offset="1" stop-color="white"/>
</linearGradient>
<linearGradient id="paint24_linear_4201:10165" x1="33.0118" y1="13.5445" x2="33.0118" y2="17.2053" gradientUnits="userSpaceOnUse">
<stop stop-color="#E4F2FF"/>
<stop offset="1" stop-color="#B2CBFF"/>
</linearGradient>
<linearGradient id="paint25_linear_4201:10165" x1="33.01" y1="13.5976" x2="33.01" y2="19.7543" gradientUnits="userSpaceOnUse">
<stop stop-color="#3F3CED" stop-opacity="0"/>
<stop offset="0.2796" stop-color="#3C3DE4" stop-opacity="0.28"/>
<stop offset="0.7305" stop-color="#3541CC" stop-opacity="0.731"/>
<stop offset="1" stop-color="#2F43BB"/>
</linearGradient>
<linearGradient id="paint26_linear_4201:10165" x1="33.0118" y1="13.5975" x2="33.0118" y2="19.7543" gradientUnits="userSpaceOnUse">
<stop stop-color="#3F3CED" stop-opacity="0"/>
<stop offset="0.2796" stop-color="#3C3DE4" stop-opacity="0.28"/>
<stop offset="0.7305" stop-color="#3541CC" stop-opacity="0.731"/>
<stop offset="1" stop-color="#2F43BB"/>
</linearGradient>
<linearGradient id="paint27_linear_4201:10165" x1="32.9962" y1="14.5842" x2="31.5364" y2="11.0542" gradientUnits="userSpaceOnUse">
<stop stop-color="white" stop-opacity="0"/>
<stop offset="1" stop-color="white"/>
</linearGradient>
<linearGradient id="paint28_linear_4201:10165" x1="33.0118" y1="10.7223" x2="33.0118" y2="14.383" gradientUnits="userSpaceOnUse">
<stop stop-color="#E4F2FF"/>
<stop offset="1" stop-color="#B2CBFF"/>
</linearGradient>
<linearGradient id="paint29_linear_4201:10165" x1="33.01" y1="10.7754" x2="33.01" y2="16.932" gradientUnits="userSpaceOnUse">
<stop stop-color="#3F3CED" stop-opacity="0"/>
<stop offset="0.2796" stop-color="#3C3DE4" stop-opacity="0.28"/>
<stop offset="0.7305" stop-color="#3541CC" stop-opacity="0.731"/>
<stop offset="1" stop-color="#2F43BB"/>
</linearGradient>
<linearGradient id="paint30_linear_4201:10165" x1="33.0118" y1="10.7754" x2="33.0118" y2="16.932" gradientUnits="userSpaceOnUse">
<stop stop-color="#3F3CED" stop-opacity="0"/>
<stop offset="0.2796" stop-color="#3C3DE4" stop-opacity="0.28"/>
<stop offset="0.7305" stop-color="#3541CC" stop-opacity="0.731"/>
<stop offset="1" stop-color="#2F43BB"/>
</linearGradient>
<linearGradient id="paint31_linear_4201:10165" x1="32.9962" y1="11.7619" x2="31.5364" y2="8.23189" gradientUnits="userSpaceOnUse">
<stop stop-color="white" stop-opacity="0"/>
<stop offset="1" stop-color="white"/>
</linearGradient>
<radialGradient id="paint32_radial_4201:10165" cx="0" cy="0" r="1" gradientUnits="userSpaceOnUse" gradientTransform="translate(15.5758 16.2365) scale(26.4766)">
<stop stop-color="#4AB272"/>
<stop offset="0.3386" stop-color="#47B071"/>
<stop offset="0.5502" stop-color="#3FA870"/>
<stop offset="0.727" stop-color="#309B6D"/>
<stop offset="0.8837" stop-color="#1C8869"/>
<stop offset="1" stop-color="#077565"/>
</radialGradient>
<linearGradient id="paint33_linear_4201:10165" x1="10.5607" y1="28.487" x2="9.71251" y2="54.9226" gradientUnits="userSpaceOnUse">
<stop stop-color="#005A01" stop-opacity="0"/>
<stop offset="1" stop-color="#005A01"/>
</linearGradient>
<linearGradient id="paint34_linear_4201:10165" x1="18.2804" y1="33.6959" x2="22.0504" y2="48.0846" gradientUnits="userSpaceOnUse">
<stop stop-color="#005A01" stop-opacity="0"/>
<stop offset="1" stop-color="#005A01"/>
</linearGradient>
<linearGradient id="paint35_linear_4201:10165" x1="29.9469" y1="33.4131" x2="28.5646" y2="51.132" gradientUnits="userSpaceOnUse">
<stop stop-color="#005A01" stop-opacity="0"/>
<stop offset="1" stop-color="#005A01"/>
</linearGradient>
<linearGradient id="paint36_linear_4201:10165" x1="18.4468" y1="23.0671" x2="0.727943" y2="-8.60058" gradientUnits="userSpaceOnUse">
<stop stop-color="#91F27F" stop-opacity="0"/>
<stop offset="1" stop-color="#FFED82"/>
</linearGradient>
<linearGradient id="paint37_linear_4201:10165" x1="30.8057" y1="29.1986" x2="8.35258" y2="16.4941" gradientUnits="userSpaceOnUse">
<stop stop-color="#005A01" stop-opacity="0"/>
<stop offset="1" stop-color="#005A01"/>
</linearGradient>
<linearGradient id="paint38_linear_4201:10165" x1="17.712" y1="19.2585" x2="30.0109" y2="29.8609" gradientUnits="userSpaceOnUse">
<stop stop-color="#FFC738"/>
<stop offset="0.1876" stop-color="#FDBF3C"/>
<stop offset="0.4837" stop-color="#F7A848"/>
<stop offset="0.8493" stop-color="#ED835B"/>
<stop offset="1" stop-color="#E97264"/>
</linearGradient>
<linearGradient id="paint39_linear_4201:10165" x1="18.8658" y1="-1.19029" x2="23.0128" y2="7.57488" gradientUnits="userSpaceOnUse">
<stop stop-color="#4AB272"/>
<stop offset="0.3386" stop-color="#47B071"/>
<stop offset="0.5502" stop-color="#3FA870"/>
<stop offset="0.727" stop-color="#309B6D"/>
<stop offset="0.8837" stop-color="#1C8869"/>
<stop offset="1" stop-color="#077565"/>
</linearGradient>
<linearGradient id="paint40_linear_4201:10165" x1="20.2303" y1="3.43653" x2="25.8224" y2="12.1074" gradientUnits="userSpaceOnUse">
<stop stop-color="#005A01" stop-opacity="0"/>
<stop offset="1" stop-color="#005A01"/>
</linearGradient>
<linearGradient id="paint41_linear_4201:10165" x1="20.5057" y1="0.292431" x2="20.7884" y2="3.07275" gradientUnits="userSpaceOnUse">
<stop stop-color="#005A01" stop-opacity="0"/>
<stop offset="1" stop-color="#005A01"/>
</linearGradient>
<linearGradient id="paint42_linear_4201:10165" x1="19.2783" y1="3.71394" x2="8.58092" y2="3.52547" gradientUnits="userSpaceOnUse">
<stop stop-color="#91F27F" stop-opacity="0"/>
<stop offset="1" stop-color="#FFED82"/>
</linearGradient>
<linearGradient id="paint43_linear_4201:10165" x1="20.287" y1="6.87582" x2="20.287" y2="8.20868" gradientUnits="userSpaceOnUse">
<stop stop-color="#FFC738"/>
<stop offset="0.1876" stop-color="#FDBF3C"/>
<stop offset="0.4837" stop-color="#F7A848"/>
<stop offset="0.8493" stop-color="#ED835B"/>
<stop offset="1" stop-color="#E97264"/>
</linearGradient>
<linearGradient id="paint44_linear_4201:10165" x1="19.2542" y1="31.6129" x2="10.9603" y2="30.9217" gradientUnits="userSpaceOnUse">
<stop stop-color="#005A01" stop-opacity="0"/>
<stop offset="1" stop-color="#005A01"/>
</linearGradient>
<linearGradient id="paint45_linear_4201:10165" x1="6.98837" y1="37.234" x2="6.98837" y2="40.8948" gradientUnits="userSpaceOnUse">
<stop stop-color="#FFD945"/>
<stop offset="0.3043" stop-color="#FFCD3E"/>
<stop offset="0.8558" stop-color="#FFAD2B"/>
<stop offset="1" stop-color="#FFA325"/>
</linearGradient>
<linearGradient id="paint46_linear_4201:10165" x1="6.99048" y1="37.2871" x2="6.99048" y2="43.4437" gradientUnits="userSpaceOnUse">
<stop stop-color="#E87264" stop-opacity="0"/>
<stop offset="1" stop-color="#FF7044"/>
</linearGradient>
<linearGradient id="paint47_linear_4201:10165" x1="6.98838" y1="37.2871" x2="6.98838" y2="43.4437" gradientUnits="userSpaceOnUse">
<stop stop-color="#E87264" stop-opacity="0"/>
<stop offset="1" stop-color="#FF7044"/>
</linearGradient>
<linearGradient id="paint48_linear_4201:10165" x1="6.97272" y1="38.2736" x2="5.51303" y2="34.7436" gradientUnits="userSpaceOnUse">
<stop stop-color="#FFD945" stop-opacity="0"/>
<stop offset="1" stop-color="#FBED21"/>
</linearGradient>
<linearGradient id="paint49_linear_4201:10165" x1="6.98837" y1="34.4117" x2="6.98837" y2="38.0725" gradientUnits="userSpaceOnUse">
<stop stop-color="#FFD945"/>
<stop offset="0.3043" stop-color="#FFCD3E"/>
<stop offset="0.8558" stop-color="#FFAD2B"/>
<stop offset="1" stop-color="#FFA325"/>
</linearGradient>
<linearGradient id="paint50_linear_4201:10165" x1="6.99048" y1="34.4649" x2="6.99048" y2="40.6215" gradientUnits="userSpaceOnUse">
<stop stop-color="#E87264" stop-opacity="0"/>
<stop offset="1" stop-color="#FF7044"/>
</linearGradient>
<linearGradient id="paint51_linear_4201:10165" x1="6.98838" y1="34.4648" x2="6.98838" y2="40.6214" gradientUnits="userSpaceOnUse">
<stop stop-color="#E87264" stop-opacity="0"/>
<stop offset="1" stop-color="#FF7044"/>
</linearGradient>
<linearGradient id="paint52_linear_4201:10165" x1="6.97272" y1="35.4513" x2="5.51302" y2="31.9214" gradientUnits="userSpaceOnUse">
<stop stop-color="#FFD945" stop-opacity="0"/>
<stop offset="1" stop-color="#FBED21"/>
</linearGradient>
<linearGradient id="paint53_linear_4201:10165" x1="6.98837" y1="31.5875" x2="6.98837" y2="35.2483" gradientUnits="userSpaceOnUse">
<stop stop-color="#FFD945"/>
<stop offset="0.3043" stop-color="#FFCD3E"/>
<stop offset="0.8558" stop-color="#FFAD2B"/>
<stop offset="1" stop-color="#FFA325"/>
</linearGradient>
<linearGradient id="paint54_linear_4201:10165" x1="6.99048" y1="31.6406" x2="6.99048" y2="37.7972" gradientUnits="userSpaceOnUse">
<stop stop-color="#E87264" stop-opacity="0"/>
<stop offset="1" stop-color="#FF7044"/>
</linearGradient>
<linearGradient id="paint55_linear_4201:10165" x1="6.98838" y1="31.6406" x2="6.98838" y2="37.7972" gradientUnits="userSpaceOnUse">
<stop stop-color="#E87264" stop-opacity="0"/>
<stop offset="1" stop-color="#FF7044"/>
</linearGradient>
<linearGradient id="paint56_linear_4201:10165" x1="6.97272" y1="32.6271" x2="5.51303" y2="29.0972" gradientUnits="userSpaceOnUse">
<stop stop-color="#FFD945" stop-opacity="0"/>
<stop offset="1" stop-color="#FBED21"/>
</linearGradient>
<linearGradient id="paint57_linear_4201:10165" x1="6.98837" y1="28.7633" x2="6.98837" y2="32.4241" gradientUnits="userSpaceOnUse">
<stop stop-color="#FFD945"/>
<stop offset="0.3043" stop-color="#FFCD3E"/>
<stop offset="0.8558" stop-color="#FFAD2B"/>
<stop offset="1" stop-color="#FFA325"/>
</linearGradient>
<linearGradient id="paint58_linear_4201:10165" x1="6.99048" y1="28.8165" x2="6.99048" y2="34.9732" gradientUnits="userSpaceOnUse">
<stop stop-color="#E87264" stop-opacity="0"/>
<stop offset="1" stop-color="#FF7044"/>
</linearGradient>
<linearGradient id="paint59_linear_4201:10165" x1="6.98838" y1="28.8164" x2="6.98838" y2="34.9731" gradientUnits="userSpaceOnUse">
<stop stop-color="#E87264" stop-opacity="0"/>
<stop offset="1" stop-color="#FF7044"/>
</linearGradient>
<linearGradient id="paint60_linear_4201:10165" x1="6.97272" y1="29.8029" x2="5.51302" y2="26.273" gradientUnits="userSpaceOnUse">
<stop stop-color="#FFD945" stop-opacity="0"/>
<stop offset="1" stop-color="#FBED21"/>
</linearGradient>
<linearGradient id="paint61_linear_4201:10165" x1="6.98837" y1="25.941" x2="6.98837" y2="29.6018" gradientUnits="userSpaceOnUse">
<stop stop-color="#FFD945"/>
<stop offset="0.3043" stop-color="#FFCD3E"/>
<stop offset="0.8558" stop-color="#FFAD2B"/>
<stop offset="1" stop-color="#FFA325"/>
</linearGradient>
<linearGradient id="paint62_linear_4201:10165" x1="6.99048" y1="25.994" x2="6.99048" y2="32.1507" gradientUnits="userSpaceOnUse">
<stop stop-color="#E87264" stop-opacity="0"/>
<stop offset="1" stop-color="#FF7044"/>
</linearGradient>
<linearGradient id="paint63_linear_4201:10165" x1="6.98838" y1="25.994" x2="6.98838" y2="32.1507" gradientUnits="userSpaceOnUse">
<stop stop-color="#E87264" stop-opacity="0"/>
<stop offset="1" stop-color="#FF7044"/>
</linearGradient>
<linearGradient id="paint64_linear_4201:10165" x1="6.97272" y1="26.9807" x2="5.51303" y2="23.4507" gradientUnits="userSpaceOnUse">
<stop stop-color="#FFD945" stop-opacity="0"/>
<stop offset="1" stop-color="#FBED21"/>
</linearGradient>
<linearGradient id="paint65_linear_4201:10165" x1="6.98837" y1="23.1168" x2="6.98837" y2="26.7776" gradientUnits="userSpaceOnUse">
<stop stop-color="#FFD945"/>
<stop offset="0.3043" stop-color="#FFCD3E"/>
<stop offset="0.8558" stop-color="#FFAD2B"/>
<stop offset="1" stop-color="#FFA325"/>
</linearGradient>
<linearGradient id="paint66_linear_4201:10165" x1="6.99048" y1="23.1699" x2="6.99048" y2="29.3266" gradientUnits="userSpaceOnUse">
<stop stop-color="#E87264" stop-opacity="0"/>
<stop offset="1" stop-color="#FF7044"/>
</linearGradient>
<linearGradient id="paint67_linear_4201:10165" x1="6.98838" y1="23.1698" x2="6.98838" y2="29.3265" gradientUnits="userSpaceOnUse">
<stop stop-color="#E87264" stop-opacity="0"/>
<stop offset="1" stop-color="#FF7044"/>
</linearGradient>
<linearGradient id="paint68_linear_4201:10165" x1="6.97272" y1="24.1564" x2="5.51303" y2="20.6264" gradientUnits="userSpaceOnUse">
<stop stop-color="#FFD945" stop-opacity="0"/>
<stop offset="1" stop-color="#FBED21"/>
</linearGradient>
<linearGradient id="paint69_linear_4201:10165" x1="30.0743" y1="37.234" x2="30.0743" y2="40.8948" gradientUnits="userSpaceOnUse">
<stop stop-color="#FFD945"/>
<stop offset="0.3043" stop-color="#FFCD3E"/>
<stop offset="0.8558" stop-color="#FFAD2B"/>
<stop offset="1" stop-color="#FFA325"/>
</linearGradient>
<linearGradient id="paint70_linear_4201:10165" x1="30.0764" y1="37.2871" x2="30.0764" y2="43.4437" gradientUnits="userSpaceOnUse">
<stop stop-color="#E87264" stop-opacity="0"/>
<stop offset="1" stop-color="#FF7044"/>
</linearGradient>
<linearGradient id="paint71_linear_4201:10165" x1="30.0743" y1="37.2871" x2="30.0743" y2="43.4437" gradientUnits="userSpaceOnUse">
<stop stop-color="#E87264" stop-opacity="0"/>
<stop offset="1" stop-color="#FF7044"/>
</linearGradient>
<linearGradient id="paint72_linear_4201:10165" x1="30.0587" y1="38.2736" x2="28.599" y2="34.7436" gradientUnits="userSpaceOnUse">
<stop stop-color="#FFD945" stop-opacity="0"/>
<stop offset="1" stop-color="#FBED21"/>
</linearGradient>
<linearGradient id="paint73_linear_4201:10165" x1="30.0743" y1="34.4117" x2="30.0743" y2="38.0725" gradientUnits="userSpaceOnUse">
<stop stop-color="#FFD945"/>
<stop offset="0.3043" stop-color="#FFCD3E"/>
<stop offset="0.8558" stop-color="#FFAD2B"/>
<stop offset="1" stop-color="#FFA325"/>
</linearGradient>
<linearGradient id="paint74_linear_4201:10165" x1="30.0764" y1="34.4649" x2="30.0764" y2="40.6215" gradientUnits="userSpaceOnUse">
<stop stop-color="#E87264" stop-opacity="0"/>
<stop offset="1" stop-color="#FF7044"/>
</linearGradient>
<linearGradient id="paint75_linear_4201:10165" x1="30.0743" y1="34.4648" x2="30.0743" y2="40.6214" gradientUnits="userSpaceOnUse">
<stop stop-color="#E87264" stop-opacity="0"/>
<stop offset="1" stop-color="#FF7044"/>
</linearGradient>
<linearGradient id="paint76_linear_4201:10165" x1="30.0587" y1="35.4513" x2="28.599" y2="31.9214" gradientUnits="userSpaceOnUse">
<stop stop-color="#FFD945" stop-opacity="0"/>
<stop offset="1" stop-color="#FBED21"/>
</linearGradient>
<linearGradient id="paint77_linear_4201:10165" x1="2.84921" y1="14.5466" x2="6.55413" y2="19.5072" gradientUnits="userSpaceOnUse">
<stop stop-color="#FFD945"/>
<stop offset="0.3043" stop-color="#FFCD3E"/>
<stop offset="0.8558" stop-color="#FFAD2B"/>
<stop offset="1" stop-color="#FFA325"/>
</linearGradient>
<linearGradient id="paint78_linear_4201:10165" x1="8.84377" y1="4.42222" x2="11.4637" y2="7.93014" gradientUnits="userSpaceOnUse">
<stop stop-color="#FFD945"/>
<stop offset="0.3043" stop-color="#FFCD3E"/>
<stop offset="0.8558" stop-color="#FFAD2B"/>
<stop offset="1" stop-color="#FFA325"/>
</linearGradient>
<linearGradient id="paint79_linear_4201:10165" x1="31.4605" y1="6.3584" x2="34.0806" y2="9.86632" gradientUnits="userSpaceOnUse">
<stop stop-color="#FFD945"/>
<stop offset="0.3043" stop-color="#FFCD3E"/>
<stop offset="0.8558" stop-color="#FFAD2B"/>
<stop offset="1" stop-color="#FFA325"/>
</linearGradient>
<clipPath id="clip0_4201:10165">
<rect width="40" height="40" fill="white"/>
</clipPath>
</defs>
</svg>
